<?xml version="1.0" encoding="UTF-8"?> <svg xmlns="http://www.w3.org/2000/svg" width="689" height="561" viewBox="0 0 689 561" fill="none"> <path d="M638.831 347.56C629.742 341.299 617.936 339.63 607.175 341.821C601.429 342.969 648.443 302.067 642.592 302.589C636.742 303.006 630.16 301.232 626.921 296.328C622.115 288.711 627.548 278.903 632.98 271.704C646.876 252.818 679.89 221.307 659.413 195.847C651.577 185.309 645.517 179.883 654.084 167.258C663.174 153.902 676.233 142.842 682.293 127.608C687.725 113.835 683.86 96.306 668.293 91.2976C663.592 89.7325 658.472 89.7325 653.562 88.7934C643.637 86.9153 639.771 77.8376 642.906 68.6556C644.577 63.7515 647.503 59.3692 650.01 54.7782C655.129 45.1788 657.845 34.4317 657.95 23.5802C657.95 18.6762 657.428 13.5634 654.816 9.3898C650.428 2.39894 641.234 -0.105251 633.085 0.520797C615.533 1.77289 600.907 14.1895 589.31 27.4408C576.982 41.3182 562.46 64.5863 543.863 70.325C533.625 73.4553 525.058 65.421 515.237 63.8559C507.924 62.7081 500.506 65.2123 493.089 66.1514C485.671 67.0905 476.895 65.5253 473.343 58.9519C470.209 53.3174 472.298 46.3266 472.925 39.9618C474.492 23.5802 465.716 6.88561 449.627 1.56421C435.837 -2.92246 419.33 2.50328 411.076 14.5025C400.629 29.632 402.823 52.1697 389.136 64.3776C385.689 67.5078 380.674 69.699 376.286 68.0295C368.659 65.108 369.077 54.5695 367.197 46.5353C362.6 27.1278 332.511 20.3456 320.079 35.9968C316.317 40.7965 314.228 46.6396 310.571 51.5436C306.915 56.4477 300.855 60.4126 295.005 58.6388C289.676 56.9694 286.647 51.0219 281.632 48.7264C268.573 42.5703 255.2 58.4302 246.737 66.1514C235.245 76.5855 222.29 88.1674 223.021 105.279C223.335 113.001 226.783 120.513 226.156 128.13C225.007 143.26 209.858 152.65 196.903 160.476C181.232 169.971 166.292 180.718 152.606 192.926C147.382 197.621 141.845 204.09 143.934 210.768C146.128 217.55 154.904 219.742 162.008 218.49C172.665 216.716 181.963 210.142 191.784 205.76C201.709 201.378 214.141 199.291 222.813 205.76C228.768 210.142 231.588 217.759 231.797 225.167C232.529 247.809 218.32 279.007 205.365 296.954C196.067 309.892 182.276 318.135 167.754 323.978C148.949 331.595 123.979 339.525 117.711 361.437C114.054 374.375 121.472 386.479 118.86 399.104C116.666 409.538 107.89 417.885 98.6965 422.477C87.7267 428.007 75.1897 429.467 63.0706 430.719C49.6979 432.18 27.8627 436.667 26.0866 453.257C25.0418 463.17 33.6088 472.247 43.3249 474.647C53.0411 477.047 63.3841 474.23 72.4734 470.16C83.1298 465.465 110.711 446.579 122.517 457.431C126.278 460.874 124.502 467.135 121.785 471.413C119.069 475.795 115.726 480.49 117.084 485.394C118.756 491.237 126.173 493.115 132.233 492.698C138.292 492.281 144.874 490.716 150.203 493.533C157.307 497.185 160.023 505.115 168.172 507.515C178.515 510.645 191.052 505.01 200.142 500.628C238.275 482.16 277.244 462.961 309.109 435.624C311.93 433.85 314.855 432.18 317.885 430.824C320.705 429.572 323.84 428.215 326.974 428.215C329.063 428.215 331.257 429.572 332.302 431.137C332.929 432.076 333.138 432.389 333.451 433.432C333.451 433.224 333.556 433.85 333.556 433.954C333.556 434.267 333.66 434.476 333.66 434.789V434.893C333.66 434.997 333.66 434.997 333.66 435.102C333.66 435.415 333.66 435.832 333.66 436.145C333.556 437.397 333.451 437.919 333.033 439.38C332.616 440.841 332.198 441.78 331.675 443.032C330.317 446.058 328.645 448.875 326.869 451.588C319.347 463.17 309.422 473.082 301.795 484.664C298.975 488.837 297.199 493.428 298.348 498.646C299.497 504.071 303.989 506.471 309.213 506.68C315.691 506.993 322.377 505.01 328.437 503.028C335.123 500.837 341.6 498.124 347.973 495.202C350.376 494.159 352.675 493.011 355.078 491.968C358.003 490.611 360.928 489.151 363.749 487.69C365.839 486.646 368.137 485.499 370.435 485.394C371.898 485.29 374.405 485.916 375.241 486.959C375.346 487.064 375.346 487.168 375.346 487.168C375.346 487.272 375.346 487.377 375.346 487.377C375.346 487.377 375.346 487.377 375.346 487.585C375.346 488.316 375.241 488.942 375.137 489.672C374.928 491.655 375.137 493.742 375.973 495.62C377.749 499.793 380.883 503.55 385.271 505.115C389.345 506.471 393.733 506.054 397.912 505.115C404.494 503.55 411.076 500.941 416.718 497.185C422.255 493.324 427.479 488.942 432.598 484.56C437.404 480.49 442.314 476.421 447.329 472.56C456.314 470.369 466.866 469.326 474.074 475.795C478.985 480.177 482.432 486.646 483.582 493.115C484.731 499.376 483.79 505.845 481.388 511.688C480.134 514.714 478.462 517.636 476.477 520.349C474.283 523.27 471.88 525.879 469.582 528.591C464.776 534.33 507.193 481.951 505.312 489.359C502.491 500.315 505.312 513.879 515.237 520.349C519.834 523.374 525.476 524.627 530.909 524.314C537.908 523.896 545.013 522.018 551.595 519.827C565.281 515.236 577.922 507.723 589.206 498.75C600.489 489.777 563.505 537.982 572.803 526.922C616.395 474.36 607.717 457.88 642.592 399.104C646.562 392.426 650.323 385.54 651.786 378.027C654.189 365.819 648.652 354.342 638.831 347.56Z" fill="url(#paint0_linear)"></path> <path d="M348.823 390.392C348.823 396.977 349.283 403.563 349.896 409.995C359.547 493.768 430.937 558.857 517.339 558.857C568.813 558.857 614.925 535.731 645.718 499.435C651.386 492.696 656.595 485.498 661.191 477.994C666.859 468.805 671.608 459.156 675.285 448.895C677.583 442.463 679.574 435.877 681.259 429.139C684.17 416.734 685.702 403.716 685.702 390.239C685.702 387.941 685.702 385.644 685.549 383.194C685.089 373.545 683.864 364.05 682.025 354.861C675.591 324.844 661.191 297.736 641.122 275.989C634.075 268.331 626.262 261.286 617.683 255.007C589.648 234.025 554.872 221.773 517.033 221.773C494.819 221.773 473.832 226.062 454.376 233.719C445.031 237.548 435.992 242.142 427.413 247.35C421.285 251.178 415.617 255.313 410.102 259.755C404.127 264.656 398.459 270.016 393.25 275.682C382.373 287.475 373.182 300.646 365.981 315.042C362.305 322.546 359.088 330.357 356.483 338.474C352.04 352.564 349.283 367.266 348.67 382.581C348.977 385.491 348.823 387.941 348.823 390.392Z" fill="#D7E9FE"></path> <path opacity="0.16" d="M393.71 275.987C422.357 291.609 454.529 301.563 485.934 309.987C504.777 315.041 523.927 319.023 543.229 321.167C561.46 323.158 579.843 323.311 597.614 327.905C628.253 335.869 655.982 354.4 678.655 376.148C681.106 378.598 683.557 380.895 686.008 383.499C685.549 373.85 684.323 364.355 682.485 355.166C661.037 335.257 635.454 319.482 607.419 311.212C589.035 305.852 570.039 305.086 551.042 302.942C530.667 300.645 510.752 295.897 491.143 290.23C463.72 282.42 436.145 273.384 410.715 260.213C404.587 264.961 398.918 270.321 393.71 275.987Z" fill="#0373F9"></path> <path opacity="0.16" d="M356.943 338.78C382.22 353.942 409.489 365.735 437.83 374.158C456.52 379.672 475.67 383.5 495.126 384.879C515.501 386.41 536.029 384.419 556.404 385.185C591.333 386.563 624.73 401.266 651.386 423.473C660.425 431.13 668.238 439.706 675.591 448.742C677.889 442.31 679.881 435.725 681.566 428.986C676.051 421.788 669.923 414.896 663.335 408.617C638.671 385.338 605.887 369.411 572.03 365.735C551.349 363.438 530.361 364.969 509.679 363.591C488.692 362.212 468.163 358.384 447.941 352.258C419.6 343.681 391.871 331.123 366.594 315.195C362.764 322.853 359.547 330.663 356.943 338.78Z" fill="#0373F9"></path> <path opacity="0.16" d="M348.823 390.391C348.823 396.977 349.283 403.562 349.896 409.994C376.092 424.85 404.281 435.877 434.154 440.931C468.929 446.75 504.165 442.462 539.246 443.075C572.796 443.841 605.887 451.958 630.245 476.615C636.832 483.353 641.888 491.164 645.871 499.434C651.539 492.696 656.748 485.497 661.344 477.993C654.91 467.579 647.097 458.084 637.599 449.66C579.844 398.508 500.794 427.453 432.315 414.436C403.055 408.769 375.173 397.283 348.977 382.887C348.977 385.49 348.823 387.941 348.823 390.391Z" fill="#0373F9"></path> <path opacity="0.16" d="M427.873 247.655C448.094 256.538 468.929 264.042 490.53 269.096C506.462 272.925 522.088 274.763 538.48 273.844C553.34 272.925 568.047 270.015 582.907 268.79C602.516 267.259 622.432 270.015 641.275 276.141L617.836 255.16C608.797 253.475 599.759 252.709 590.72 252.556C575.707 252.403 560.847 254.7 545.834 255.313C529.442 255.926 513.509 253.935 497.73 249.34C483.023 245.052 468.623 239.845 454.529 233.719C445.337 237.701 436.452 242.295 427.873 247.655Z" fill="#0373F9"></path> <path d="M423.43 518.731C422.97 525.775 421.438 529.298 421.438 529.298C421.438 529.298 435.073 538.487 455.448 546.757C462.035 549.361 469.389 551.964 477.049 553.955C488.538 557.018 500.947 559.009 513.509 558.856C547.059 558.396 574.481 548.901 587.656 543.388C593.171 541.09 596.082 539.406 596.082 539.406L601.444 536.496L643.879 501.731L642.654 485.65C642.654 485.65 650.773 479.677 652.612 477.533C654.45 475.236 654.756 474.47 654.756 474.47C654.756 474.47 646.484 456.245 638.364 436.489C635.913 430.669 633.615 424.696 631.317 419.03C623.351 398.354 604.661 378.751 594.091 369.562C591.793 367.571 589.954 366.193 588.575 365.274C580.916 360.067 570.498 355.932 570.498 355.932C570.498 355.932 555.945 369.715 531.586 374.157C507.228 378.751 485.474 372.932 472.912 366.193C460.503 359.454 456.673 354.4 456.673 354.4C456.673 354.4 452.844 355.319 446.563 358.535C443.652 359.914 440.281 361.905 436.605 364.355C424.962 372.013 420.672 378.445 420.366 378.904C420.672 378.751 423.277 377.22 427.413 395.291C428.639 400.652 430.63 409.228 432.775 418.877C438.29 443.381 445.184 474.47 445.184 474.47C445.184 474.47 449.78 489.173 447.941 492.389C447.022 493.92 444.571 494.992 442.273 495.758C439.822 496.524 437.677 496.83 437.677 496.83H420.06C420.366 496.677 423.889 511.839 423.43 518.731Z" fill="#FFBF4D"></path> <path d="M572.49 419.336C580.15 436.949 595.929 443.075 614.006 441.849C621.972 441.39 629.785 439.858 637.292 436.949C637.752 436.795 638.058 436.642 638.518 436.489C636.066 430.669 633.768 424.697 631.471 419.03C623.504 398.355 604.814 378.752 594.244 369.562C590.873 370.328 587.35 371.707 584.133 373.698C569.12 383.499 565.749 403.562 572.49 419.336Z" fill="#FFA750"></path> <path d="M477.049 553.955C488.538 557.018 500.947 559.009 513.509 558.856C547.059 558.397 574.481 548.901 587.656 543.388C587.044 541.244 586.124 539.1 584.899 537.109C580.15 528.992 573.256 521.947 565.596 516.74C550.123 506.172 532.199 501.731 514.275 508.776C494.666 516.434 480.878 533.28 477.049 553.955Z" fill="#FFA750"></path> <path d="M462.802 450.427C462.495 459.463 466.785 468.805 474.291 474.012C491.909 485.804 516.88 477.534 527.91 460.841C532.812 453.49 535.57 443.994 532.965 435.418C532.965 435.265 532.965 435.265 532.812 435.112C533.578 433.58 533.884 431.742 533.119 430.211C522.701 408.617 495.279 411.373 478.428 423.472C469.542 429.905 463.108 439.094 462.802 450.427Z" fill="#FFA750"></path> <path d="M420.366 378.753C420.672 378.599 423.277 377.068 427.413 395.14C428.639 400.5 430.63 409.076 432.775 418.725C436.758 418.112 440.588 416.887 444.265 415.049C457.746 408.311 465.406 394.527 463.414 379.518C462.342 370.942 457.746 364.05 450.239 359.915C449.014 359.303 447.788 358.69 446.409 358.23C443.499 359.609 440.128 361.6 436.452 364.05C425.115 371.861 420.672 378.293 420.366 378.753Z" fill="#FFA750"></path> <path d="M423.43 518.731C422.97 525.776 421.438 529.299 421.438 529.299C421.438 529.299 435.073 538.488 455.448 546.758C458.972 539.406 461.269 531.136 460.81 523.172C460.197 510.461 452.69 500.813 442.426 495.605C439.975 496.371 437.83 496.678 437.83 496.678H420.213C420.366 496.678 423.89 511.839 423.43 518.731Z" fill="#FFA750"></path> <path d="M346.832 390.391C346.832 296.356 423.43 219.781 517.493 219.781C611.555 219.781 688.153 296.356 688.153 390.391C688.153 484.425 611.555 561 517.493 561C423.277 561 346.832 484.425 346.832 390.391ZM350.968 390.391C350.968 482.128 425.728 556.865 517.493 556.865C609.257 556.865 684.017 482.128 684.017 390.391C684.017 298.654 609.257 223.916 517.493 223.916C425.575 223.916 350.968 298.654 350.968 390.391Z" fill="#021732"></path> <path d="M591.946 367.42C591.946 367.42 601.75 358.69 607.572 342.916C613.393 327.142 614.312 302.025 605.121 286.863C595.929 271.701 588.269 263.737 580.609 260.827C572.949 257.918 568.966 257.458 568.966 257.458C568.966 257.458 572.183 236.936 567.588 215.954C562.992 194.973 547.672 182.721 543.995 180.27C540.319 177.82 540.165 177.82 540.165 177.82C540.165 177.82 546.6 160.361 528.829 148.875C511.058 137.388 490.989 143.821 486.24 150.866C481.491 157.91 475.057 167.406 475.057 167.406L476.436 173.225C476.436 173.225 451.771 180.577 443.039 196.198C434.307 211.819 437.524 227.134 439.975 233.873C442.426 240.612 453.303 250.566 453.303 250.566L455.295 266.035C455.295 266.035 452.844 266.953 449.78 268.179C446.869 269.251 432.775 275.07 426.647 294.061C420.519 313.052 423.43 328.06 425.728 335.412C428.026 342.61 437.83 355.934 441.967 359.916C442.886 360.835 447.482 355.934 456.673 354.249C484.555 349.195 541.238 350.267 571.724 355.781C584.746 358.078 591.946 367.42 591.946 367.42Z" fill="#2E323D"></path> <path d="M533.118 415.508C534.497 416.274 535.11 416.58 535.263 416.733C535.11 416.58 533.118 415.508 533.118 415.508Z" fill="#F9C5B7"></path> <path d="M439.669 407.392C441.201 409.383 446.716 413.059 452.231 415.509C457.746 418.113 469.236 420.869 469.236 420.869C469.236 420.869 460.963 424.239 462.342 429.293C463.721 434.5 466.631 437.41 469.542 439.554C472.299 441.698 475.67 441.545 475.67 441.545C475.67 441.545 476.895 442.31 481.032 445.22C485.015 447.977 490.53 451.346 491.909 450.734C493.287 450.121 493.747 448.743 493.134 447.977C492.675 447.211 491.755 445.22 491.755 445.22C491.755 445.22 504.777 449.662 508.301 447.977C511.824 446.446 513.05 444.455 512.284 443.536C511.518 442.617 506.769 439.707 506.769 439.707C506.769 439.707 513.509 437.103 517.952 437.563C518.258 437.563 518.565 437.716 519.024 437.716C524.233 439.094 536.182 447.058 546.14 463.751C555.179 478.76 574.481 514.597 593.018 530.525C596.389 533.435 599.759 535.579 602.976 536.957C624.117 545.381 633.768 538.183 637.752 524.246C639.284 519.039 640.662 513.219 641.735 507.706C643.267 499.282 643.879 491.319 642.501 486.418C642.347 485.958 642.194 485.499 642.041 485.039C642.041 485.039 641.735 487.337 631.164 488.409C630.092 488.562 629.019 488.562 627.794 488.715C625.955 488.868 624.27 488.868 622.738 488.868C618.755 488.868 615.691 488.715 613.393 488.409C611.249 488.102 609.717 487.796 608.951 487.49C608.338 487.337 608.185 487.183 608.185 487.183L603.436 482.13C603.436 482.13 578.311 455.481 566.056 444.301C553.8 433.121 538.787 422.401 536.029 418.878C534.191 416.581 533.578 415.815 533.425 415.509C533.118 415.356 532.812 415.203 532.352 414.897C525.612 411.374 521.476 409.23 509.373 409.843C497.27 410.455 490.836 412.752 475.057 409.23C459.125 405.708 444.877 402.645 442.12 402.951C439.209 403.563 438.137 405.401 439.669 407.392Z" fill="#F9C5B7"></path> <path d="M617.989 500.966C625.802 506.48 632.237 507.705 641.735 507.858C643.267 499.435 643.879 491.471 642.501 486.57C639.896 486.57 637.752 487.489 635.607 489.327C634.841 489.94 634.075 490.246 634.228 490.399C633.309 490.093 632.083 489.327 631.164 488.561C630.092 488.714 629.019 488.714 627.794 488.868C625.955 489.021 624.27 489.021 622.738 489.021C621.666 490.093 621.053 491.471 621.053 492.849C618.142 491.777 614.772 490.246 613.547 488.561C611.402 488.255 609.87 487.949 609.104 487.642C608.951 487.949 608.798 488.102 608.644 488.408C606.959 493.768 614.313 498.516 617.989 500.966Z" fill="#F3A5A5"></path> <path d="M481.798 325.15L481.032 328.213C481.032 328.213 479.193 334.492 473.525 342.303C468.01 350.113 453.61 354.248 453.61 354.248C453.61 354.248 471.38 368.951 499.109 375.689C526.684 382.275 545.987 371.401 553.494 368.644C557.017 367.419 561.46 364.662 564.983 362.059C568.966 359.302 571.877 356.699 571.877 356.699L555.026 346.438C555.026 346.438 542.77 337.555 538.787 327.906C534.804 318.258 532.812 287.015 532.353 284.565C532.046 282.574 532.812 277.52 533.118 275.835C533.118 275.529 533.272 275.223 533.272 275.223L533.578 275.376L534.65 275.835L537.561 277.061C537.561 277.061 540.778 277.979 544.149 275.223C547.519 272.466 550.276 265.421 549.97 262.664C549.664 259.908 546.906 254.088 544.455 252.097C541.851 250.106 536.948 251.638 536.948 251.638C536.948 251.638 521.169 246.89 515.195 245.971C509.22 245.052 505.237 244.593 494.819 238.926C484.402 233.26 481.644 218.098 481.644 218.098C481.644 218.098 480.113 223.764 479.959 228.206C479.806 232.647 472.759 238.467 466.325 240.458C460.044 242.449 450.852 247.503 450.852 247.503L452.69 260.367L456.367 271.241L457.439 281.961C457.439 281.961 465.712 303.709 468.929 310.6C474.904 324.537 481.798 325.15 481.798 325.15Z" fill="#F9C5B7"></path> <path d="M533.425 275.529L534.497 275.989C534.497 275.223 533.884 275.223 533.425 275.529Z" fill="#F3A5A5"></path> <path d="M531.28 329.745C535.57 347.357 548.438 357.771 564.83 362.06C568.813 359.303 571.724 356.699 571.724 356.699L554.872 346.438C554.872 346.438 542.617 337.555 538.634 327.907C534.65 318.259 532.659 287.016 532.199 284.565C531.893 282.575 532.659 277.521 532.965 275.836C528.829 282.728 528.982 292.682 528.523 300.646C528.216 310.448 528.982 320.403 531.28 329.745Z" fill="#F3A5A5"></path> <path d="M477.815 335.718C478.427 333.573 479.193 331.583 479.653 329.438C480.266 327.141 482.411 324.844 484.862 326.069C491.449 329.438 502.326 326.835 507.382 321.168C507.994 320.403 508.76 320.096 509.526 319.943C511.977 317.493 514.122 314.736 515.961 312.439C516.267 312.132 517.339 311.826 517.186 312.592C515.195 320.556 512.131 326.529 505.237 331.583C498.496 336.636 488.079 340.771 479.5 339.24C478.274 338.934 477.508 336.943 477.815 335.718Z" fill="#F3A5A5"></path> <path d="M508.607 260.06C508.301 261.132 508.147 262.051 507.841 263.123C507.535 264.195 507.381 265.114 506.769 266.033C505.39 268.483 502.326 269.402 499.415 270.168C498.802 270.321 498.19 270.474 497.73 270.321C496.964 270.168 496.351 269.709 495.738 269.249C493.594 267.411 491.755 265.267 490.223 262.97C490.223 262.97 492.675 259.601 499.262 258.682C505.849 257.763 508.607 260.06 508.607 260.06Z" fill="white"></path> <path d="M533.425 258.835C532.046 255.159 534.651 251.177 538.327 250.258C542.464 249.186 546.6 251.79 548.591 255.159C551.043 259.294 550.736 264.501 549.357 268.942C548.132 272.771 545.834 276.447 542.004 277.978C538.327 279.357 533.731 278.591 532.046 274.762C531.28 273.231 533.578 271.852 534.344 273.384C535.57 275.681 538.021 276.294 540.472 275.681C543.383 274.915 545.221 272.465 546.293 269.861C547.672 266.645 548.438 262.51 547.519 258.988C546.753 255.925 544.302 253.168 541.085 252.555C537.561 251.943 533.731 255.006 533.885 258.681C533.885 258.988 533.425 258.988 533.425 258.835Z" fill="#021732"></path> <path d="M533.425 273.997C533.578 275.835 534.038 277.519 534.191 279.357C534.344 281.195 534.497 282.88 534.497 284.717C534.651 288.24 534.957 291.916 535.263 295.438C535.876 302.33 536.183 309.375 537.408 316.113C538.481 322.392 540.319 328.672 543.689 334.185C546.6 338.933 550.583 342.915 555.179 346.131C560.234 349.5 565.903 352.257 571.265 355.013C572.797 355.779 571.418 357.923 570.039 357.158C560.081 351.797 549.204 347.662 542.617 338.014C534.957 326.681 534.191 312.438 533.272 299.267C532.965 294.979 532.659 290.69 532.506 286.555C532.353 284.564 532.353 282.573 532.199 280.582C532.199 279.51 532.199 278.285 532.199 277.213C532.199 276.141 532.659 275.069 532.659 273.844C532.812 273.384 533.425 273.538 533.425 273.997Z" fill="#021732"></path> <path d="M480.879 324.384C481.645 325.303 481.338 326.987 481.185 328.212C480.879 330.05 480.572 331.735 479.96 333.419C478.734 336.789 477.049 340.005 474.904 342.762C472.759 345.672 470.308 348.275 467.398 350.419C466.019 351.491 464.487 352.563 462.955 353.482C461.423 354.401 459.738 355.779 457.899 356.239C455.601 356.852 454.529 353.942 456.367 352.563C457.746 351.644 459.431 351.185 460.81 350.266C462.342 349.5 463.721 348.581 465.1 347.662C467.857 345.825 470.308 343.527 472.453 341.077C474.445 338.627 476.283 335.87 477.509 332.96C478.121 331.429 478.734 329.897 479.194 328.212C479.5 326.987 479.653 324.996 480.572 324.23C480.572 324.23 480.726 324.23 480.879 324.384Z" fill="#021732"></path> <path d="M571.418 357.465C566.209 363.438 558.549 367.42 551.349 370.636C544.149 373.852 536.489 376.149 528.676 377.375C512.437 379.978 496.045 379.059 480.726 372.933C476.283 371.095 471.993 369.105 467.857 366.654C465.865 365.429 463.874 364.204 461.882 362.979C459.584 361.6 457.287 360.069 455.755 357.771C454.376 355.627 456.674 352.105 459.278 353.177C463.108 354.862 466.019 358.231 469.542 360.528C473.066 362.672 476.742 364.663 480.419 366.501C487.466 369.717 494.973 371.861 502.633 372.933C510.139 374.005 517.799 374.312 525.459 373.24C532.812 372.321 540.166 370.33 547.213 367.573C551.196 366.042 554.873 364.204 558.549 362.213C562.379 360.069 566.056 357.618 570.039 355.627C571.111 354.555 572.49 356.24 571.418 357.465Z" fill="#021732"></path> <path d="M479.5 210.44C479.653 212.278 480.572 213.657 481.338 215.341C481.951 216.72 482.564 217.945 483.177 219.323C484.402 221.774 485.781 224.224 487.466 226.521C490.837 231.269 495.432 235.251 500.335 238.467C505.39 241.836 511.212 244.287 517.033 245.971C520.097 246.89 523.314 247.35 526.378 247.962C528.063 248.269 529.748 248.575 531.433 249.034C532.965 249.341 534.651 249.647 536.183 250.26C537.868 251.025 536.642 253.629 534.957 253.169C533.731 252.863 532.659 252.25 531.433 251.791C530.055 251.332 528.523 250.872 527.144 250.413C524.54 249.647 521.782 249.034 519.025 248.422C513.969 247.197 509.067 246.278 504.318 244.133C495.586 240.305 487.619 234.179 482.87 225.755C481.645 223.458 480.572 221.008 479.806 218.557C479.04 215.954 479.5 213.35 479.194 210.594C479.194 210.287 479.5 210.287 479.5 210.44Z" fill="#021732"></path> <path d="M479.04 209.828C479.653 210.9 480.419 211.36 480.879 212.585C481.338 213.81 481.492 215.035 481.798 216.26C482.104 218.864 482.258 221.468 481.798 224.071C481.185 228.666 479.194 233.107 476.13 236.629C473.066 239.999 469.083 241.837 464.793 243.215C462.648 243.827 460.504 244.44 458.512 245.206C456.521 245.972 454.835 247.197 453.15 248.422C451.618 249.647 448.861 247.963 450.239 246.125C455.295 239.233 465.712 240.918 471.84 235.557C475.21 232.801 477.202 228.819 478.121 224.531C478.581 222.08 478.734 219.477 478.734 216.873C478.734 215.648 478.428 214.423 478.428 213.197C478.428 211.972 478.734 211.053 478.887 209.828C478.887 209.828 479.04 209.828 479.04 209.828Z" fill="#021732"></path> <path d="M520.863 263.43C522.701 257.763 516.88 253.475 512.131 251.79C509.68 250.871 507.228 250.412 504.931 249.187C502.633 247.962 500.488 246.583 498.19 245.205C493.747 242.601 489.917 238.773 486.7 234.638C483.33 230.502 480.879 226.214 480.266 221.007C479.959 218.863 483.177 218.71 483.789 220.548C485.321 225.602 488.232 230.196 491.756 234.025C493.594 236.169 495.432 238.16 497.424 239.845C499.569 241.682 502.02 243.061 504.471 244.592C506.769 246.124 509.067 247.043 511.671 248.115C513.969 249.034 516.267 250.106 518.259 251.79C521.629 254.7 523.314 259.295 521.323 263.43C521.169 263.736 520.863 263.583 520.863 263.43Z" fill="#021732"></path> <path d="M482.104 179.045C481.645 177.973 481.491 177.513 481.951 176.441C482.257 175.369 482.564 174.297 483.177 173.532C484.555 171.541 486.394 170.009 488.385 168.784C492.981 166.027 498.649 164.955 504.011 164.802C509.833 164.649 515.654 165.874 521.323 167.406C526.838 169.09 532.353 171.081 537.561 173.685C556.711 183.333 568.354 203.09 571.571 223.918C573.563 237.548 572.49 251.485 568.967 264.809C568.201 267.566 564.064 266.341 564.677 263.584C569.426 243.062 569.886 220.702 559.622 201.711C555.179 193.594 549.204 186.396 541.391 181.189C532.659 175.369 521.935 171.541 511.518 169.703C505.543 168.631 499.262 168.631 493.441 170.622C491.143 171.387 488.845 172.613 487.007 174.144C486.087 174.91 485.321 175.676 484.555 176.595C484.096 177.054 483.789 177.82 483.33 178.279C483.023 178.739 482.564 178.892 482.104 179.351C482.257 179.198 482.104 179.198 482.104 179.045Z" fill="#021732"></path> <path d="M480.879 173.379C480.113 173.532 478.428 174.145 477.508 174.451C476.589 174.757 475.67 175.064 474.751 175.37C472.913 175.983 471.074 176.748 469.236 177.514C466.325 178.739 463.568 180.271 460.81 181.955C455.601 185.172 451.005 189.46 447.329 194.361C440.129 204.162 437.371 216.721 440.895 228.513C442.733 234.945 446.41 240.918 451.465 245.36C453.916 247.504 450.393 250.72 447.942 248.882C437.218 240.306 432.622 225.603 434.46 212.279C436.299 198.496 445.184 186.397 456.827 179.199C460.044 177.208 463.414 175.676 466.938 174.451C469.083 173.685 471.074 173.226 473.219 172.92C474.444 172.766 475.517 172.613 476.742 172.613C478.121 172.613 479.347 173.073 480.572 173.226C481.185 173.073 481.185 173.379 480.879 173.379Z" fill="#021732"></path> <path d="M571.877 354.861C576.626 355.014 580.916 357.618 584.899 360.068C588.882 362.672 592.559 365.582 596.235 368.798C603.283 374.771 609.564 381.356 615.385 388.554C621.053 395.752 626.262 403.41 630.551 411.527C635.147 420.256 638.671 429.445 641.888 438.788C646.024 450.58 651.08 461.913 656.748 473.093C658.127 475.697 653.991 478.147 652.765 475.391C648.169 465.742 643.267 456.094 639.59 445.986C636.067 436.49 633.156 426.842 628.713 417.653C620.9 401.419 610.023 386.563 597.001 374.158C593.172 370.636 589.342 367.267 585.205 364.203C583.214 362.672 581.069 361.14 578.771 359.915C576.473 358.537 573.869 357.618 571.571 356.24C570.652 356.087 570.958 354.861 571.877 354.861Z" fill="#021732"></path> <path d="M655.676 474.624C655.829 479.218 651.539 482.894 648.016 485.191C644.033 487.948 639.59 489.786 634.994 491.011C626.109 493.308 615.079 493.768 606.806 489.173C604.355 487.795 606.04 484.425 608.645 484.885C612.628 485.651 616.611 486.723 620.747 486.876C624.883 487.029 629.173 486.723 633.156 485.651C637.139 484.579 640.969 483.047 644.492 480.903C648.016 478.759 651.08 476.309 654.45 473.858C655.063 473.705 655.676 474.164 655.676 474.624Z" fill="#021732"></path> <path d="M455.142 354.402C455.295 354.096 455.448 353.79 455.601 353.484C456.214 353.79 456.674 354.096 457.286 354.402C450.852 357.465 444.418 360.835 438.443 364.817C435.532 366.808 432.622 368.952 429.864 371.249C428.485 372.321 427.26 373.546 426.034 374.771C424.809 375.997 423.583 377.681 421.745 377.988C420.979 378.141 419.906 377.681 420.06 376.609C420.366 374.771 421.592 373.699 422.97 372.474C424.349 371.096 425.728 369.871 427.26 368.645C430.017 366.195 433.081 363.898 436.145 361.907C442.426 357.772 449.32 354.402 456.52 352.258C458.665 351.646 458.052 355.474 456.214 354.249C455.908 354.402 455.601 354.402 455.142 354.402C455.142 354.556 455.142 354.402 455.142 354.402Z" fill="#021732"></path> <path d="M482.257 262.052C482.257 264.656 481.491 267.26 480.879 269.71C480.266 272.467 479.347 275.07 478.734 277.827C478.274 279.971 478.887 281.349 480.572 282.575C482.104 283.647 483.789 284.412 485.321 285.484C486.853 286.556 485.474 289.007 483.789 287.935C480.572 285.791 475.517 283.8 475.823 279.052C475.976 277.674 476.436 276.295 476.896 274.917C477.355 273.386 477.815 271.854 478.427 270.323C479.347 267.413 480.266 264.35 481.951 261.746C482.104 261.899 482.257 262.052 482.257 262.052Z" fill="#021732"></path> <path d="M568.813 256.385C577.699 255.313 586.584 261.439 592.712 267.105C599.299 273.078 604.661 280.429 608.338 288.546C615.998 304.933 617.223 323.618 611.249 340.771C608.032 350.266 602.823 359.761 595.47 366.653C593.018 368.95 589.648 365.581 591.793 362.977C597.155 356.545 601.904 349.807 604.968 341.996C608.032 334.185 609.717 325.915 609.564 317.492C609.564 301.258 602.976 285.33 592.099 273.231C589.035 269.709 585.512 266.646 581.682 264.042C577.546 261.286 573.103 259.754 568.354 258.529C567.128 258.223 567.588 256.538 568.813 256.385Z" fill="#021732"></path> <path d="M454.529 267.872C448.095 270.016 442.273 273.385 437.524 278.133C432.469 283.34 428.945 289.772 426.954 296.664C422.97 310.141 423.736 325.15 428.945 338.168C430.324 341.537 432.009 344.906 434.154 347.969C436.298 351.185 439.056 353.789 441.507 356.852C442.426 358.077 441.201 360.374 439.669 359.302C436.605 357.311 434.307 354.248 432.162 351.339C430.017 348.429 428.332 345.366 426.8 342.15C423.736 335.564 421.898 328.366 421.285 321.015C419.906 305.7 423.43 289.006 434.154 277.52C439.516 271.854 446.409 267.412 454.222 266.493C455.142 266.187 455.295 267.565 454.529 267.872Z" fill="#021732"></path> <path d="M476.589 172.306C473.372 170.928 473.372 166.793 473.985 163.883C474.751 160.36 476.589 157.297 478.734 154.541C483.483 148.874 490.224 144.892 497.271 142.901C511.211 138.766 526.837 142.748 536.948 153.315C542.463 159.288 546.753 167.711 544.149 175.828C543.229 179.045 538.174 177.666 539.093 174.45C540.932 168.477 537.868 162.504 533.884 158.063C530.055 153.775 524.999 150.405 519.484 148.568C507.841 144.739 494.666 147.649 485.474 155.766C483.023 157.91 480.725 160.667 479.347 163.73C478.121 166.486 478.121 169.396 476.742 172.153C476.895 172.306 476.742 172.306 476.589 172.306Z" fill="#021732"></path> <path d="M372.416 496.831H442.886C446.256 496.831 448.861 493.768 448.095 490.399L425.268 382.887C424.809 380.437 422.511 378.752 420.06 378.752H349.589C346.219 378.752 343.615 381.815 344.381 385.184L367.207 492.696C367.82 495.146 369.965 496.831 372.416 496.831Z" fill="#0373F9"></path> <path opacity="0.4" d="M349.589 378.752H354.032L375.939 481.516C376.399 483.966 378.697 485.651 381.148 485.651H447.175L448.094 490.245C448.86 493.615 446.256 496.678 442.886 496.678H372.415C369.964 496.678 367.666 494.993 367.207 492.543L344.381 385.031C343.768 381.815 346.219 378.752 349.589 378.752Z" fill="#035CDD"></path> <path d="M361.998 436.644C361.998 436.644 361.998 433.274 362.611 430.518C362.151 437.256 361.998 436.644 361.998 436.644Z" fill="#F9C5B7"></path> <path d="M366.901 495.76C371.497 505.715 376.552 513.678 380.842 520.264C388.808 532.21 399.685 540.173 403.208 541.092C406.885 542.011 416.383 544.462 421.439 529.147C422.511 526.084 422.971 523.021 423.277 519.958C423.43 518.426 423.43 517.048 423.43 515.669C423.43 511.228 422.817 507.093 422.051 503.877C421.439 501.273 420.979 499.282 420.519 497.904C420.213 496.832 419.907 496.372 419.907 496.372H418.987L411.634 496.526H408.264H407.651H407.038L401.523 496.679H400.297L379.156 497.138H377.165V496.066H366.901V495.76Z" fill="#F9C5B7"></path> <path d="M379.31 496.831C381.761 510.309 394.17 520.11 407.498 523.173C412.094 524.245 421.132 525.624 423.43 519.804C423.583 519.651 423.583 519.344 423.583 519.191C423.89 518.119 423.737 516.741 423.43 515.516C423.124 513.831 422.511 512.146 422.205 510.768C422.051 510.309 422.051 509.696 421.898 509.236C421.898 508.93 421.898 508.471 422.051 508.164C422.051 506.786 422.205 505.255 422.051 503.723C421.898 501.579 421.592 499.435 420.519 497.75C420.213 497.138 419.6 496.525 419.141 496.219L411.787 496.372C411.481 496.678 411.174 496.984 411.021 497.138C410.255 496.678 409.489 496.372 408.57 496.372H407.957C407.804 496.372 407.651 496.372 407.345 496.372H407.191L401.676 496.525C401.37 496.678 401.217 496.831 401.063 496.831C400.91 496.678 400.604 496.678 400.451 496.525L379.31 496.831Z" fill="#F3A5A5"></path> <path d="M365.215 492.848L342.389 385.796C341.93 383.499 342.542 381.202 343.921 379.364C345.3 377.526 347.598 376.607 349.896 376.607H419.907C423.43 376.607 426.647 379.211 427.413 382.58L450.239 489.632C450.699 491.93 450.239 494.227 448.707 496.065C447.329 497.902 445.031 498.821 442.733 498.821H372.722C369.045 498.821 365.981 496.371 365.215 492.848ZM349.896 380.742C348.823 380.742 347.904 381.202 347.138 381.968C346.525 382.733 346.219 383.805 346.372 384.878L369.199 491.93C369.505 493.461 371.037 494.686 372.569 494.686H442.58C443.652 494.686 444.571 494.227 445.337 493.461C445.95 492.695 446.256 491.623 446.103 490.551L423.277 383.499C422.971 381.968 421.439 380.742 419.907 380.742H349.896Z" fill="#021732"></path> <path d="M356.943 465.589C351.581 439.86 356.177 420.87 358.781 419.644C361.386 418.266 363.224 423.014 362.611 430.212C362.611 430.365 362.611 430.365 362.611 430.518C361.845 433.275 361.998 436.644 361.998 436.644C361.998 436.644 362.151 437.257 362.611 430.518C363.224 428.374 364.143 426.689 365.981 427.149C370.271 428.221 371.037 440.932 371.037 440.932L371.496 443.842C371.496 443.842 374.714 441.392 376.399 441.239C378.084 441.085 379.156 442.923 379.156 447.365C379.156 451.806 379.309 456.4 379.309 456.4C379.003 466.815 377.624 488.868 377.624 488.868L378.39 502.805C374.867 502.805 373.488 502.805 369.964 502.805C365.981 494.229 359.394 477.382 356.943 465.589Z" fill="#F9C5B7"></path> <path d="M480.572 296.663C481.032 296.663 481.185 296.51 481.645 296.357C482.257 296.203 482.717 296.357 483.33 296.357C484.555 296.357 485.781 296.203 487.006 296.05C488.232 295.897 489.458 295.591 490.53 295.438C491.602 295.131 492.522 294.672 493.594 294.672C494.82 294.672 495.739 295.438 495.892 296.51C496.045 297.429 495.739 298.501 495.279 299.42C494.513 301.257 493.441 302.942 491.909 304.32C490.224 305.852 488.232 306.924 486.087 307.23C485.475 307.383 484.862 307.077 484.555 306.311C484.402 305.699 484.709 304.933 485.475 304.78C487.466 304.167 489.304 303.401 490.683 301.87C491.449 301.104 491.909 300.338 492.368 299.573C492.522 299.266 492.828 298.807 492.981 298.347C493.134 298.041 493.134 297.888 493.288 297.582C493.288 297.429 493.441 296.969 493.441 296.816V296.663C493.441 296.816 493.594 296.816 493.594 296.816C493.594 296.816 492.981 296.816 492.981 296.969C492.368 297.122 491.909 297.275 491.296 297.429C490.07 297.735 488.692 297.888 487.466 297.888C486.241 297.888 484.862 297.888 483.636 297.735C483.023 297.582 482.257 297.582 481.645 297.275C481.185 297.122 481.032 296.816 480.572 296.663Z" fill="#021732"></path> <path d="M470.614 421.482C463.721 421.482 456.98 419.185 450.699 416.275C447.635 414.743 444.724 413.059 441.967 411.068C439.975 409.536 437.218 407.545 438.29 404.635C439.362 401.726 442.426 402.032 445.031 402.185C449.167 402.645 453.303 403.87 457.593 404.789C466.019 406.32 474.598 407.545 483.177 408.158C491.756 408.771 500.028 408.771 508.607 408.464C516.573 408.158 524.54 408.617 531.587 412.752C538.48 416.734 544.302 422.707 550.277 427.914C556.711 433.581 562.992 439.401 569.12 445.22C583.06 458.238 596.542 471.715 609.41 485.805C611.095 487.643 608.338 490.553 606.499 488.715C585.052 465.589 562.532 443.229 538.787 422.401C533.272 417.5 527.45 413.212 519.944 411.987C512.284 410.761 504.471 411.834 496.811 411.987C480.879 412.293 464.793 410.455 449.473 406.473C447.482 406.014 445.49 405.248 443.345 404.789C442.58 404.635 441.354 404.176 440.741 404.635C440.128 405.248 440.282 406.167 440.741 406.626C441.814 408.005 443.652 408.924 445.031 409.843C446.563 410.915 448.248 411.834 449.933 412.599C456.52 415.815 463.874 417.194 470.921 419.032C472.146 419.491 471.84 421.482 470.614 421.482Z" fill="#021732"></path> <path d="M643.114 485.957C645.412 494.993 644.952 504.182 643.114 513.218C641.735 520.263 639.284 527.307 634.994 533.127C631.011 538.487 625.496 542.469 618.755 543.082C610.789 543.848 602.517 539.866 595.929 535.578C569.579 518.578 560.081 486.57 542.923 461.912C538.021 454.867 532.353 448.129 525.459 442.922C522.089 440.318 518.412 437.715 513.816 438.787C511.671 439.399 509.68 440.624 507.688 441.39C505.543 442.309 503.399 442.922 500.947 442.922C498.496 442.922 498.496 439.246 500.947 439.246C505.237 439.246 508.301 436.489 512.284 435.264C515.808 434.192 519.484 434.652 522.701 436.336C525.919 438.021 528.982 440.624 531.74 442.922C534.497 445.372 537.102 447.976 539.553 450.732C549.511 462.219 556.558 475.696 563.758 489.02C570.805 501.885 578.312 514.749 589.189 524.857C594.397 529.758 600.219 533.893 606.806 536.496C613.853 539.406 621.666 540.019 627.794 534.812C633.462 530.064 636.679 523.019 638.671 516.128C641.428 506.326 642.041 496.065 642.654 485.957C642.654 485.804 643.114 485.651 643.114 485.957Z" fill="#021732"></path> <path d="M500.641 430.67C499.109 431.435 497.424 432.201 495.892 432.967C494.207 433.733 492.522 434.498 490.836 435.57C489.304 436.489 487.16 438.021 487.926 440.012C488.538 441.543 489.917 442.769 491.296 443.534C496.198 446.75 503.245 447.976 509.067 446.75C509.68 446.597 510.752 446.444 511.058 445.832C511.365 445.066 510.292 444.147 509.833 443.841C508.301 442.769 506.309 442.615 504.624 442.003C503.399 441.543 503.552 439.859 504.93 439.859C507.075 439.705 509.22 440.165 511.212 441.237C512.897 442.309 514.582 444.453 513.969 446.597C512.897 450.426 506.462 450.273 503.399 450.12C499.262 449.967 494.973 448.895 491.449 446.75C488.385 444.913 483.789 440.778 486.547 436.949C487.926 434.958 490.53 433.886 492.675 432.967C495.279 431.742 498.037 431.435 500.641 430.67C500.794 430.516 500.794 430.67 500.641 430.67Z" fill="#021732"></path> <path d="M489.764 443.842C490.53 444.301 491.143 445.067 491.756 445.679C492.522 446.445 493.134 447.364 493.747 448.283C494.666 449.508 494.666 451.193 493.134 451.959C491.449 452.878 489.305 451.652 487.773 451.04C485.934 450.274 484.096 449.202 482.411 447.977C479.04 445.526 476.13 442.463 473.372 439.4C472.147 438.022 471.074 436.644 470.921 434.806C470.768 432.815 471.993 431.13 473.372 429.905C476.742 426.689 481.032 425.157 485.475 424.392C487.619 424.085 488.539 427.301 486.394 427.608C482.564 428.374 478.887 429.292 475.67 431.59C473.985 432.815 472.912 434.04 473.985 436.031C474.904 437.716 476.436 439.094 477.662 440.472C480.419 443.382 483.483 445.986 486.853 448.13C487.773 448.589 488.692 449.202 489.611 449.508C490.071 449.661 490.53 449.968 490.99 449.968C491.296 450.121 491.602 450.121 491.756 450.121C492.215 450.121 492.368 449.815 492.062 449.508C491.909 448.589 490.837 447.517 490.53 446.598C490.224 445.833 489.764 444.761 489.764 443.842C489.611 443.842 489.764 443.842 489.764 443.842Z" fill="#021732"></path> <path d="M475.517 442.004C475.517 442.158 475.517 442.158 475.517 442.004C475.21 442.464 474.904 442.77 474.444 442.77C468.47 442.158 463.721 437.716 461.576 432.356C460.35 429.446 460.35 426.077 462.495 423.626C464.64 421.329 467.857 419.798 470.921 419.032C474.598 417.96 478.427 417.807 482.104 418.572C483.636 418.879 483.33 421.635 481.798 421.329C478.427 420.87 474.904 421.329 471.687 422.248C470.002 422.707 468.47 423.473 467.091 424.392C465.865 425.158 464.333 426.077 464.027 427.761C463.567 430.518 465.559 433.887 467.244 435.878C469.236 438.176 471.84 439.86 474.904 440.626C475.364 440.779 475.67 441.085 475.67 441.392C475.67 441.545 475.67 441.851 475.517 442.004Z" fill="#021732"></path> <path d="M421.898 498.362C424.809 506.479 425.268 515.821 424.196 524.244C423.43 530.523 420.979 537.568 415.004 540.937C407.804 544.919 399.378 542.009 393.557 537.262C387.122 532.055 381.914 525.01 377.318 518.271C367.666 504.488 360.466 488.713 356.636 472.326C354.645 464.056 353.572 455.48 352.96 447.056C352.653 442.309 352.5 437.561 352.806 432.813C352.96 429.138 353.419 425.615 354.951 422.246C356.177 419.642 358.475 416.579 361.692 417.651C366.441 419.183 364.296 425.768 363.99 429.291C363.683 434.192 363.683 439.092 363.837 443.993C363.837 449.354 363.99 454.714 364.143 459.921C364.143 461.606 361.692 461.606 361.539 459.921C360.773 451.804 360.466 443.84 360.466 435.57C360.466 431.588 360.773 427.759 361.232 423.777C361.385 422.858 361.539 420.102 359.853 421.174C358.934 421.786 358.321 423.165 358.015 424.084C356.636 427.3 356.483 430.822 356.33 434.192C356.177 438.327 356.33 442.462 356.636 446.444C357.096 454.101 358.168 461.759 359.853 469.263C363.224 484.119 368.892 498.208 376.858 511.073C380.841 517.505 385.437 523.631 390.646 529.298C395.395 534.505 401.37 539.865 408.876 539.406C416.689 538.946 420.06 531.442 421.285 524.857C422.97 516.127 421.898 507.244 420.826 498.515C420.519 497.749 421.592 497.596 421.898 498.362Z" fill="#021732"></path> <path d="M362.458 430.058C362.305 426.229 366.441 424.391 369.352 426.842C370.884 428.22 371.343 430.364 371.65 432.355C371.956 435.265 372.263 438.175 372.416 441.084C372.722 446.751 373.029 452.418 373.029 458.084C373.029 463.904 373.029 469.724 372.263 475.543C371.956 477.381 369.199 476.922 369.199 475.084C369.199 470.489 369.505 466.048 369.658 461.453C369.658 457.012 369.658 452.571 369.658 448.129C369.505 443.688 369.352 439.247 369.045 434.958C368.892 432.968 369.045 430.67 367.973 428.986C366.288 426.382 364.143 428.22 363.071 430.058C362.764 430.364 362.458 430.211 362.458 430.058Z" fill="#021732"></path> <path d="M371.037 444.608C371.803 442.463 372.262 440.626 374.56 439.707C375.939 439.247 377.318 439.554 378.39 440.626C380.535 442.923 380.688 446.905 380.841 449.815C381.454 456.4 381.301 463.139 380.995 469.724C380.841 473.094 380.535 476.463 380.229 479.832C379.922 482.895 380.075 486.418 378.697 489.174C378.237 490.093 376.552 489.94 376.399 488.868C375.786 486.264 376.552 483.355 376.858 480.751C377.165 477.994 377.318 475.391 377.624 472.634C378.084 467.121 378.237 461.607 378.237 456.094C378.237 452.418 378.237 448.436 377.471 444.914C377.318 443.995 377.012 442.463 376.246 442.004C374.56 441.545 371.956 443.995 371.037 444.608C371.037 444.761 371.037 444.761 371.037 444.608Z" fill="#021732"></path> <path d="M455.295 259.754C457.899 258.375 460.963 257.916 463.874 258.069C466.785 258.222 470.308 258.835 472.606 260.826C473.985 262.051 472.453 264.195 470.921 263.736C469.695 263.429 468.47 262.664 467.244 262.357C466.172 262.051 464.946 261.745 463.874 261.592C461.423 261.285 458.818 261.592 456.367 262.204C454.835 262.357 453.916 260.366 455.295 259.754Z" fill="#021732"></path> <path d="M511.058 260.674C507.994 259.756 504.624 259.296 501.407 259.602C499.875 259.756 498.19 260.215 496.811 260.674C495.279 261.287 493.9 262.206 492.521 262.819C490.989 263.584 488.998 261.593 490.53 260.215C491.909 258.99 493.9 258.224 495.585 257.765C497.424 257.152 499.262 256.846 501.1 256.693C504.93 256.386 508.454 257.152 511.671 258.99C512.59 259.602 511.977 260.981 511.058 260.674Z" fill="#021732"></path> <path d="M472.453 248.882C471.38 249.341 470.002 249.188 468.929 249.035C468.163 249.035 467.704 248.882 467.091 248.882C466.785 248.882 466.478 248.882 466.172 248.729C465.865 248.729 465.712 248.729 465.406 248.575C465.559 248.575 465.559 248.575 465.253 248.575C462.802 248.269 460.35 248.422 457.899 248.269C456.827 248.116 455.754 247.503 455.601 246.278C455.448 245.206 456.061 244.134 457.286 243.828C460.044 243.062 463.108 243.368 465.865 243.828C467.244 243.981 468.776 244.44 470.002 245.053C471.074 245.666 472.453 246.278 473.066 247.503C473.372 247.963 473.066 248.575 472.453 248.882Z" fill="#021732"></path> <path d="M506.156 244.746C503.858 245.359 501.56 245.971 499.262 246.737C498.19 247.043 497.117 247.503 495.892 247.809C495.586 247.962 495.279 247.962 494.973 248.115C494.82 248.115 494.666 248.269 494.666 248.269C494.819 248.115 494.82 248.269 494.513 248.269C493.9 248.575 493.441 248.728 492.828 249.034C491.296 249.8 489.611 249.341 488.845 247.656C488.232 246.125 488.998 244.44 490.683 243.98C495.586 242.449 500.947 241.683 506.003 242.602C507.228 242.908 507.228 244.44 506.156 244.746Z" fill="#021732"></path> <path d="M517.186 311.213C509.833 323.924 491.909 332.807 477.968 325.303C474.138 323.312 471.84 319.789 470.002 316.114C467.857 311.979 465.865 307.537 464.027 303.249C462.189 298.808 460.35 294.213 458.665 289.619C457.133 285.177 455.295 280.736 455.295 275.988C455.295 273.385 455.448 270.934 454.529 268.331C453.61 266.187 452.537 264.043 451.924 261.745C450.699 257.304 450.086 252.556 450.393 247.962C450.546 246.737 452.537 246.737 452.384 247.962C452.078 251.944 452.384 255.773 453.303 259.601C453.763 261.439 454.376 263.277 455.142 264.962C455.908 266.799 456.827 268.637 457.133 270.628C457.44 272.619 457.133 274.61 457.133 276.601C457.133 279.051 457.899 281.349 458.665 283.493C460.044 287.781 461.729 292.069 463.414 296.357C465.099 300.646 466.938 304.781 468.929 308.916C470.614 312.591 472.3 316.726 474.904 319.942C479.959 326.068 489.458 326.528 496.658 324.69C500.641 323.618 504.318 322.24 507.841 319.942C511.365 317.492 514.429 314.429 517.186 311.213C517.033 311.06 517.186 311.213 517.186 311.213Z" fill="#021732"></path> <path opacity="0.22" d="M393.097 433.121C393.097 427.914 388.808 423.626 383.599 423.626C383.293 423.626 382.833 423.626 382.527 423.626C383.905 419.95 387.429 417.193 391.565 417.193C396.774 417.193 401.063 421.482 401.063 426.689C401.063 431.59 397.387 435.571 392.638 436.184C392.944 435.265 393.097 434.193 393.097 433.121Z" fill="#D7E9FE"></path> <path d="M470.002 262.358L470.461 263.736C470.461 263.736 470.614 268.024 468.163 268.79C465.712 269.556 462.342 269.862 462.342 269.862C462.342 269.862 461.729 270.015 460.503 269.096C459.278 268.177 457.286 264.502 457.286 264.502L455.907 261.439C455.907 261.439 460.044 259.907 462.495 259.754C464.64 259.601 470.002 262.358 470.002 262.358Z" fill="white"></path> <path d="M470.614 262.053C470.768 263.125 470.614 264.35 470.614 265.422C470.614 266.188 470.461 267.107 470.002 267.719C469.082 269.251 467.244 269.71 465.712 270.017C464.64 270.323 463.721 270.629 462.648 270.782C461.729 270.935 460.963 270.782 460.35 270.017C458.971 268.485 457.746 266.647 456.52 264.963C456.061 264.197 457.133 263.584 457.746 264.35C458.818 265.728 459.891 267.26 460.963 268.638C461.116 268.945 461.423 269.251 461.729 269.404C462.035 269.557 462.495 269.404 462.955 269.404C463.874 269.251 464.793 269.098 465.559 268.791C466.784 268.485 468.47 268.332 469.236 267.107C469.695 266.494 469.848 265.575 470.002 264.809C470.002 263.891 470.308 262.972 470.614 262.053Z" fill="#021732"></path> <path d="M494.819 269.248C492.368 267.104 490.224 263.429 490.224 263.275C490.07 262.969 490.07 262.663 490.224 262.51C490.224 262.51 491.909 260.672 494.053 259.447C496.351 258.222 504.777 258.068 505.85 258.068C506.003 258.068 506.003 258.068 506.003 258.068L508.914 258.834C509.22 258.987 509.526 259.294 509.373 259.6C509.22 260.212 508.148 265.266 506.922 266.951C505.543 268.636 502.632 270.014 500.947 270.474H500.794C500.181 270.627 499.415 270.78 498.496 270.78C497.73 270.933 496.351 270.474 494.819 269.248ZM505.85 259.294C503.245 259.294 496.505 259.753 494.819 260.519C493.441 261.285 492.215 262.357 491.756 262.969C492.368 264.041 494.053 266.492 495.892 268.176C497.883 270.014 499.262 269.555 500.794 269.248H500.947C502.479 268.789 505.084 267.564 506.156 266.185C506.922 265.113 507.841 261.897 508.148 260.059L505.85 259.294Z" fill="#021732"></path> <path d="M499.569 267.565C501.261 267.565 502.632 266.194 502.632 264.502C502.632 262.811 501.261 261.439 499.569 261.439C497.876 261.439 496.505 262.811 496.505 264.502C496.505 266.194 497.876 267.565 499.569 267.565Z" fill="#021732"></path> <path d="M463.874 267.718C465.566 267.718 466.938 266.346 466.938 264.655C466.938 262.963 465.566 261.592 463.874 261.592C462.182 261.592 460.81 262.963 460.81 264.655C460.81 266.346 462.182 267.718 463.874 267.718Z" fill="#021732"></path> <path d="M493.747 177.819C496.811 176.134 499.262 173.99 502.786 173.071C506.462 172.152 510.292 172.152 514.122 172.459C521.169 172.918 527.603 175.062 533.425 179.044C544.915 186.702 551.962 198.954 556.251 211.665C559.009 219.782 543.689 226.061 540.472 217.944C536.642 208.449 531.893 199.26 524.233 192.062C520.71 188.693 516.42 186.089 511.977 184.098C509.067 182.873 506.156 182.107 503.092 181.341C500.181 180.729 496.811 179.197 493.9 179.197C492.981 179.197 493.287 178.125 493.747 177.819Z" fill="#384051"></path> <path d="M574.175 271.087C582.601 272.772 587.043 275.529 592.865 281.808C597.461 286.862 600.372 292.988 602.21 299.42C605.733 312.438 607.419 328.825 600.372 341.077C596.388 347.815 581.682 347.662 586.124 338.167C590.72 328.365 589.648 315.194 587.809 304.78C586.89 299.573 585.358 294.825 583.52 289.925C581.375 284.258 577.545 276.601 572.796 272.619C571.877 271.853 573.409 270.934 574.175 271.087Z" fill="#384051"></path> <path d="M533.884 266.798C534.191 264.807 536.336 263.735 538.174 263.888C538.021 263.429 538.327 262.663 539.093 262.663C539.246 262.663 539.246 262.663 539.246 262.663C539.246 262.357 539.246 261.897 539.093 261.591C539.093 261.285 538.94 260.978 538.94 260.672C538.021 260.672 537.102 260.366 537.102 259.294C536.948 256.078 541.544 254.852 543.689 256.997C545.374 258.681 545.681 261.591 545.527 263.888C545.374 266.951 543.383 269.708 540.319 270.474C537.561 271.24 533.425 270.321 533.884 266.798Z" fill="#F3A5A5"></path> <path d="M364.765 359.196C387.863 359.196 406.588 340.477 406.588 317.386C406.588 294.295 387.863 275.576 364.765 275.576C341.667 275.576 322.943 294.295 322.943 317.386C322.943 340.477 341.667 359.196 364.765 359.196Z" fill="#00D0D0"></path> <path d="M369.055 336.988L370.127 329.943C370.127 329.943 373.191 324.736 376.715 321.367C378.859 319.222 379.319 315.241 379.166 312.331C379.013 308.808 377.787 305.439 375.336 302.835C373.344 300.691 370.587 299.313 367.676 298.7C363.999 297.935 359.863 298.241 356.646 300.232C354.195 301.763 352.51 304.214 351.437 306.817C350.058 310.34 349.905 314.322 351.131 317.997C352.51 321.826 356.339 324.736 355.88 329.024C355.727 329.943 355.42 332.547 355.114 334.997C354.808 337.754 356.646 340.204 359.403 340.664L363.387 341.123C366.144 341.429 368.595 339.591 369.055 336.988Z" fill="white"></path> <path d="M368.749 341.278C367.523 342.35 365.991 342.962 364.459 342.962C364 342.962 363.693 342.962 363.234 342.962L362.468 342.809L360.782 342.503L359.097 342.196C358.331 342.043 357.565 341.737 356.952 341.431C355.574 340.665 354.501 339.44 353.889 337.908C353.582 337.142 353.429 336.377 353.429 335.611C353.429 335.152 353.429 334.845 353.429 334.386L353.582 333.62L354.042 330.251L354.348 328.566V327.953C354.348 327.8 354.348 327.494 354.348 327.341C354.195 325.656 352.969 323.818 351.744 321.981C351.131 321.062 350.518 319.99 350.059 318.764C349.599 317.539 349.293 316.314 349.139 315.089C348.527 310.188 349.905 304.981 353.276 301.305C354.961 299.468 357.259 298.089 359.71 297.323C362.161 296.711 364.612 296.558 367.063 297.017C369.515 297.477 371.813 298.242 373.957 299.621C376.102 300.999 377.787 302.837 379.013 305.134C380.238 307.431 380.698 309.882 380.851 312.332C380.851 314.783 380.851 317.233 379.779 319.683C379.472 320.296 379.166 320.909 378.86 321.521C378.706 321.827 378.4 322.134 378.247 322.44L377.634 323.053C376.868 323.818 376.255 324.737 375.642 325.503C374.417 327.188 373.191 329.179 372.119 331.016L372.425 330.251L371.2 337.296C370.74 338.827 369.974 340.205 368.749 341.278ZM368.136 329.485C368.136 329.179 368.289 329.026 368.442 328.719C369.821 326.728 371.2 324.89 372.732 323.053C373.498 322.134 374.264 321.215 375.183 320.449L375.796 319.837C375.949 319.683 376.102 319.53 376.255 319.377C376.562 319.071 376.715 318.611 376.868 318.152C377.634 316.467 377.94 314.323 377.787 312.179C377.787 310.035 377.328 308.044 376.408 306.206C374.723 302.531 370.74 300.233 366.604 299.621C362.468 299.008 358.025 299.927 355.421 303.143C352.663 306.206 351.591 310.648 352.203 314.629C352.357 315.701 352.663 316.62 352.969 317.539C353.276 318.458 353.889 319.377 354.501 320.296C355.727 322.134 357.259 324.125 357.718 327.035C357.718 327.341 357.718 327.8 357.872 328.107V329.179L357.718 330.863L357.259 334.233L357.106 335.152C357.106 335.305 357.106 335.458 357.106 335.764C357.106 336.07 357.259 336.53 357.412 336.836C357.718 337.449 358.178 338.061 358.791 338.368C359.097 338.521 359.404 338.674 359.863 338.674L361.548 338.827L363.234 338.98L364.153 339.133C364.306 339.133 364.459 339.133 364.612 339.133C365.991 339.133 367.217 337.908 367.37 336.53L368.136 329.485Z" fill="#021732"></path> <path d="M366.748 333.85C368.408 333.85 369.831 333.046 369.831 331.922C370.068 330.798 368.883 329.673 366.986 329.513L358.449 328.87C356.789 328.709 355.129 329.513 354.891 330.798C354.654 331.922 355.84 333.046 357.737 333.207L366.274 333.85C366.511 333.85 366.748 333.85 366.748 333.85Z" fill="#021732"></path> <path d="M324.015 300.233C326.313 294.873 329.683 290.125 333.82 286.143C342.092 278.179 353.582 273.585 365.072 273.738C370.74 273.738 376.561 274.963 381.923 277.107C387.285 279.252 392.034 282.621 396.17 286.756C400.307 290.891 403.524 295.639 405.822 300.999C408.12 306.359 409.192 312.179 409.192 317.998C409.192 329.638 404.443 341.277 396.17 349.547C392.034 353.682 386.979 356.899 381.617 359.196C376.255 361.493 370.28 362.565 364.459 362.565C358.637 362.565 352.663 361.34 347.301 359.043C341.939 356.745 337.037 353.376 332.9 349.088C328.764 344.8 325.547 339.899 323.555 334.386C321.411 329.025 320.338 323.052 320.491 317.386C320.491 311.26 321.717 305.44 324.015 300.233ZM337.037 344.647C344.237 351.845 354.195 355.98 364.459 356.133C374.57 356.286 384.681 352.304 392.034 345.106C399.388 338.061 403.83 327.953 403.983 317.692C404.137 307.431 400.154 297.17 392.953 289.666C385.753 282.161 375.489 277.72 365.072 277.72C359.863 277.72 354.654 278.639 349.905 280.63C345.156 282.621 340.713 285.531 337.037 289.206C329.683 296.557 325.547 306.819 325.547 317.08C325.547 327.341 329.836 337.449 337.037 344.647Z" fill="#05080C"></path> <path d="M374.417 183.226C397.515 183.226 416.239 164.507 416.239 141.415C416.239 118.324 397.515 99.6055 374.417 99.6055C351.319 99.6055 332.594 118.324 332.594 141.415C332.594 164.507 351.319 183.226 374.417 183.226Z" fill="#00D0D0"></path> <path d="M333.82 124.11C336.118 118.75 339.488 114.002 343.624 110.02C351.897 102.056 363.387 97.4619 374.876 97.615C380.545 97.615 386.366 98.8402 391.728 100.984C397.09 103.128 401.839 106.498 405.975 110.633C410.111 114.768 413.329 119.516 415.626 124.876C417.924 130.236 418.997 136.056 418.997 141.875C418.997 153.515 414.248 165.154 405.975 173.424C401.839 177.559 396.783 180.776 391.421 183.073C386.06 185.37 380.085 186.442 374.263 186.442C368.442 186.442 362.467 185.217 357.105 182.92C351.744 180.622 346.841 177.253 342.705 172.965C338.569 168.677 335.352 163.776 333.36 158.263C331.215 152.902 330.143 146.929 330.296 141.263C330.296 135.137 331.522 129.47 333.82 124.11ZM346.841 168.524C354.042 175.722 363.999 179.857 374.263 180.01C384.374 180.163 394.485 176.181 401.839 168.983C409.192 161.938 413.635 151.83 413.788 141.569C413.941 131.308 409.958 121.047 402.758 113.543C395.558 106.038 385.294 101.597 374.876 101.597C369.668 101.597 364.459 102.516 359.71 104.507C354.961 106.498 350.518 109.408 346.841 113.083C339.488 120.434 335.352 130.695 335.352 140.957C335.352 151.371 339.488 161.479 346.841 168.524Z" fill="#05080C"></path> <path d="M224.131 114.462C247.229 114.462 265.954 95.7429 265.954 72.6518C265.954 49.5608 247.229 30.8418 224.131 30.8418C201.033 30.8418 182.308 49.5608 182.308 72.6518C182.308 95.7429 201.033 114.462 224.131 114.462Z" fill="#00D0D0"></path> <path d="M183.381 55.4987C185.679 50.1384 189.049 45.3908 193.185 41.4089C201.458 33.4451 212.948 28.8506 224.437 29.0037C230.106 29.0037 235.927 30.2289 241.289 32.373C246.651 34.5171 251.4 37.8864 255.536 42.0215C259.673 46.1565 262.89 50.9042 265.188 56.2645C267.486 61.6247 268.558 67.4444 268.558 73.2641C268.558 84.9035 263.809 96.543 255.536 104.813C251.4 108.948 246.344 112.164 240.983 114.462C235.621 116.759 229.646 117.831 223.825 117.831C218.003 117.831 212.029 116.606 206.667 114.308C201.305 112.011 196.402 108.642 192.266 104.354C188.13 100.065 184.913 95.1646 182.921 89.6512C180.776 84.2909 179.704 78.3181 179.857 72.6515C179.857 66.5255 181.083 60.7058 183.381 55.4987ZM196.402 99.9123C203.603 107.11 213.56 111.245 223.825 111.399C233.936 111.552 244.047 107.57 251.4 100.372C258.753 93.3268 263.196 83.2189 263.349 72.9578C263.503 62.6968 259.519 52.4357 252.319 44.9313C245.119 37.427 234.855 32.9856 224.437 32.9856C219.229 32.9856 214.02 33.9045 209.271 35.8955C204.522 37.8864 200.079 40.7963 196.402 44.4719C189.049 51.8231 184.913 62.0842 184.913 72.3452C184.913 82.6063 189.049 92.7142 196.402 99.9123Z" fill="#05080C"></path> <path d="M78.2882 242.647C101.386 242.647 120.111 223.928 120.111 200.837C120.111 177.746 101.386 159.027 78.2882 159.027C55.1902 159.027 36.4656 177.746 36.4656 200.837C36.4656 223.928 55.1902 242.647 78.2882 242.647Z" fill="#00D0D0"></path> <path d="M37.5379 183.532C39.8359 178.172 43.2062 173.424 47.3425 169.442C55.6151 161.478 67.1048 156.884 78.5945 157.037C84.2628 157.037 90.0843 158.262 95.4461 160.406C100.808 162.55 105.557 165.92 109.693 170.055C113.83 174.19 117.047 178.937 119.345 184.298C121.643 189.658 122.715 195.478 122.715 201.297C122.715 212.937 117.966 224.576 109.693 232.846C105.557 236.981 100.502 240.198 95.1397 242.495C89.7779 244.792 83.8032 245.864 77.9818 245.864C72.1603 245.864 66.1856 244.639 60.8238 242.342C55.4619 240.044 50.5596 236.675 46.4233 232.387C42.287 228.099 39.0699 223.198 37.0783 217.684C34.9336 212.324 33.8612 206.351 34.0144 200.685C34.0144 194.712 35.24 188.892 37.5379 183.532ZM50.5596 228.099C57.7598 235.297 67.7176 239.432 77.9818 239.585C88.0927 239.738 98.2037 235.756 105.557 228.558C112.911 221.513 117.353 211.405 117.506 201.144C117.66 190.883 113.677 180.622 106.476 173.118C99.276 165.613 89.0119 161.172 78.5945 161.172C73.3859 161.172 68.1772 162.091 63.4281 164.082C58.679 166.073 54.2363 168.983 50.5596 172.658C43.2062 180.009 39.0699 190.271 39.0699 200.532C39.0699 210.793 43.3594 220.901 50.5596 228.099Z" fill="#05080C"></path> <path d="M164.844 424.897C187.942 424.897 206.667 406.178 206.667 383.087C206.667 359.996 187.942 341.277 164.844 341.277C141.746 341.277 123.021 359.996 123.021 383.087C123.021 406.178 141.746 424.897 164.844 424.897Z" fill="#00D0D0"></path> <path d="M124.094 365.78C126.392 360.42 129.762 355.672 133.898 351.69C142.171 343.726 153.661 339.132 165.15 339.285C170.819 339.285 176.64 340.51 182.002 342.654C187.364 344.798 192.113 348.168 196.249 352.303C200.386 356.438 203.603 361.185 205.901 366.546C208.199 371.906 209.271 377.726 209.271 383.545C209.271 395.185 204.522 406.824 196.249 415.094C192.113 419.229 187.058 422.446 181.696 424.743C176.334 427.04 170.359 428.112 164.538 428.112C158.716 428.112 152.742 426.887 147.38 424.59C142.018 422.292 137.116 418.923 132.979 414.635C128.843 410.347 125.626 405.446 123.634 399.932C121.489 394.572 120.417 388.599 120.57 382.933C120.57 376.96 121.796 371.14 124.094 365.78ZM137.116 410.347C144.316 417.545 154.274 421.68 164.538 421.833C174.649 421.986 184.76 418.004 192.113 410.806C199.466 403.761 203.909 393.653 204.062 383.392C204.216 373.131 200.232 362.87 193.032 355.366C185.832 347.861 175.568 343.42 165.15 343.42C159.942 343.42 154.733 344.339 149.984 346.33C145.235 348.321 140.792 351.231 137.116 354.906C129.762 362.257 125.626 372.519 125.626 382.78C125.626 393.041 129.915 403.149 137.116 410.347Z" fill="#05080C"></path> <path d="M237.459 295.79C273.079 295.79 301.955 266.923 301.955 231.314C301.955 195.705 273.079 166.838 237.459 166.838C201.839 166.838 172.964 195.705 172.964 231.314C172.964 266.923 201.839 295.79 237.459 295.79Z" fill="#D7E9FE"></path> <path d="M175.874 205.28C179.398 197.316 184.453 189.965 190.734 183.839C203.296 171.587 220.608 164.695 238.072 164.848C246.804 164.848 255.536 166.686 263.503 170.055C271.622 173.425 278.975 178.479 285.103 184.605C291.231 190.884 296.133 198.235 299.504 206.352C302.874 214.469 304.559 223.198 304.559 231.928C304.559 240.658 302.721 249.54 299.351 257.657C295.98 265.774 290.925 273.279 284.644 279.405C278.363 285.684 270.856 290.585 262.737 293.954C254.617 297.323 245.732 299.008 236.846 299.008C227.961 298.855 219.229 297.17 211.109 293.648C202.99 290.125 195.637 285.071 189.356 278.792C183.228 272.513 178.325 264.855 175.108 256.738C171.891 248.621 170.206 239.739 170.359 231.009C170.512 221.973 172.351 213.244 175.874 205.28ZM180.164 254.441C183.228 261.945 187.824 268.684 193.492 274.504C204.828 285.99 220.761 292.575 236.846 292.729C244.966 292.882 252.932 291.35 260.439 288.287C267.945 285.377 274.839 280.783 280.507 275.27C286.329 269.603 290.925 262.864 294.142 255.513C297.359 248.162 299.044 240.045 299.197 231.928C299.351 223.811 297.819 215.694 294.908 208.19C291.844 200.685 287.401 193.64 281.733 187.821C276.065 182.001 269.171 177.253 261.664 174.037C254.158 170.821 246.038 169.136 237.919 168.983C229.799 168.983 221.527 170.515 214.02 173.578C206.514 176.641 199.62 181.235 193.798 187.055C187.977 192.875 183.381 199.766 180.317 207.271C177.253 214.775 175.568 222.892 175.568 231.009C175.568 238.973 177.1 246.937 180.164 254.441Z" fill="#05080C"></path> <path d="M224.744 114.615C224.744 114.462 224.897 114.462 224.897 114.615C225.816 118.444 225.969 122.426 226.429 126.407C226.889 130.696 227.195 134.984 227.655 139.272C228.114 143.407 228.421 147.542 228.727 151.677C228.88 153.668 229.033 155.659 229.187 157.65C229.34 159.641 229.646 161.785 229.493 163.776C229.34 165.92 226.429 165.92 226.123 163.776C225.969 161.785 226.123 159.641 226.123 157.65C226.123 155.812 225.969 153.821 225.816 151.984C225.663 147.695 225.357 143.407 225.05 139.272C224.744 135.137 224.437 130.849 224.284 126.561C224.131 122.732 223.978 118.597 224.744 114.615Z" fill="#05080C"></path> <path d="M119.498 212.324C120.264 213.09 121.489 213.549 122.562 214.009C123.787 214.468 125.013 214.928 126.239 215.234C128.843 216 131.6 216.459 134.358 216.918C139.873 217.837 145.541 218.45 151.21 219.216C156.265 219.982 161.474 220.747 166.529 221.513C168.214 221.819 170.206 222.279 171.738 222.126C173.423 222.126 174.802 220.441 174.189 218.756C173.883 218.144 173.423 217.991 172.963 217.991C172.504 217.684 172.044 217.684 171.432 217.684C170.666 217.684 169.9 217.531 169.287 217.531C167.755 217.378 166.07 217.072 164.538 216.765C159.329 215.846 153.967 215.234 148.758 214.468C143.703 213.855 138.647 213.243 133.745 212.63C131.294 212.324 128.843 211.865 126.392 211.405C124.553 211.099 122.102 210.333 120.264 210.639C119.192 210.792 119.038 211.865 119.498 212.324Z" fill="#05080C"></path> <path d="M187.824 341.89C188.896 339.593 189.815 337.295 190.888 334.998C193.185 329.944 195.79 325.043 198.088 319.99C200.386 314.936 202.684 309.882 205.135 304.981C207.433 300.233 209.731 295.026 213.101 291.044C213.561 290.585 214.327 291.044 214.173 291.657C212.948 296.404 210.497 300.846 208.658 305.44C206.667 310.035 204.675 314.629 202.684 319.377C200.845 323.971 198.854 328.413 196.709 332.854C195.637 335.151 194.717 337.295 193.951 339.593C193.492 340.818 193.032 342.043 192.573 343.115C192.419 343.575 192.113 344.034 191.96 344.494C191.96 344.647 191.807 344.8 191.807 344.953V345.106C192.113 346.944 190.275 348.782 188.283 347.557C185.985 346.025 186.904 343.728 187.824 341.89Z" fill="#05080C"></path> <path d="M297.359 268.838C298.891 269.451 300.116 270.676 301.495 271.595C302.874 272.514 304.253 273.433 305.478 274.198C308.389 276.036 311.453 277.721 314.517 279.252C317.428 280.937 320.338 282.468 323.249 284.459C324.628 285.378 326.007 286.297 327.232 287.369C328.611 288.441 329.99 289.36 330.909 290.892C331.368 291.811 330.602 293.036 329.53 292.729C327.998 292.117 326.773 291.045 325.394 290.126C324.015 289.207 322.483 288.288 321.104 287.369C318.194 285.685 315.13 283.847 312.066 282.162C309.155 280.477 306.244 278.946 303.333 277.261C300.576 275.577 297.206 273.739 295.214 271.135C294.142 269.604 296.133 268.379 297.359 268.838Z" fill="#05080C"></path> <path d="M295.98 198.389C296.746 197.776 297.665 197.317 298.431 196.857C299.351 196.245 300.27 195.632 301.189 195.019C306.091 191.803 310.84 188.434 315.896 185.371C320.798 182.308 325.853 179.857 330.756 176.794C333.054 175.416 335.198 173.731 337.496 172.2C338.569 171.587 339.641 170.975 340.714 170.668C341.786 170.362 343.011 170.362 344.237 170.209C344.39 170.209 344.39 170.362 344.237 170.515C343.011 171.128 342.245 172.047 341.326 172.966C340.56 173.731 339.794 174.497 339.028 175.11C337.343 176.641 335.658 178.02 333.82 179.398C329.837 182.308 325.547 184.605 321.258 187.056C316.968 189.659 312.985 192.722 308.849 195.479C306.704 197.01 304.559 198.235 302.568 199.767C301.955 200.226 301.342 200.839 300.576 201.145C300.423 201.298 300.117 201.452 299.963 201.452C299.657 202.217 298.891 202.83 297.972 202.83C295.214 203.289 294.142 200.226 295.98 198.389Z" fill="#05080C"></path> <path d="M266.873 78.7779C269.477 79.6968 272.235 80.4626 274.839 81.5347C280.661 83.8319 286.329 86.1292 292.304 88.1201C303.946 92.102 315.589 95.6245 326.926 100.372C330.143 101.75 333.207 102.976 336.271 104.507C339.335 106.039 342.246 107.876 345.156 109.714C345.309 109.714 345.156 109.867 345.156 109.867C342.246 108.642 339.335 107.876 336.424 106.651C333.513 105.579 330.603 104.507 327.845 103.435C321.87 101.291 315.896 99.1469 309.921 97.156C304.1 95.165 298.125 93.3272 292.15 91.3363C286.022 89.3453 280.048 87.0481 274.073 84.7508C272.235 83.9851 270.243 83.3725 268.405 82.7599C267.179 82.3004 265.035 81.6878 264.728 80.3094C264.115 78.9311 265.801 78.1653 266.873 78.7779Z" fill="#05080C"></path> <path d="M206.667 374.052C213.867 371.755 221.527 371.142 229.033 369.457C237 367.773 244.659 365.016 252.319 362.412C260.592 359.502 268.711 356.746 276.984 353.836C284.95 351.079 292.916 347.863 301.189 345.566C305.478 344.341 309.768 343.422 314.057 342.35C318.347 341.278 322.636 339.746 326.926 339.287C327.692 339.133 327.845 340.359 327.232 340.665C324.015 342.656 320.032 343.422 316.355 344.494C312.525 345.566 308.542 346.638 304.712 347.71C296.593 350.16 288.78 353.223 280.814 356.133C272.694 359.196 264.422 362.106 256.302 364.863C248.642 367.619 240.829 370.376 232.863 372.367C224.437 374.511 215.705 374.971 207.586 377.574C205.441 378.187 204.522 374.664 206.667 374.052Z" fill="#05080C"></path> <path d="M93.6078 240.811C97.7441 246.784 101.268 253.063 104.332 259.649C107.395 266.234 110.153 272.973 113.37 279.558C119.804 293.036 126.085 306.666 132.52 320.143C136.043 327.494 139.414 334.846 143.09 342.044C143.703 342.656 144.163 343.269 144.163 344.188C144.009 345.107 143.55 345.872 142.631 346.179H142.477C141.558 346.485 140.486 346.026 140.026 345.26C133.132 331.783 126.698 317.999 120.111 304.369C113.677 290.738 107.549 277.108 101.88 263.171C100.348 259.343 98.5101 255.667 96.8249 251.838C95.1397 248.163 93.4546 244.793 93.3014 240.658C93.3014 240.658 93.4546 240.658 93.6078 240.811Z" fill="#05080C"></path> <path d="M102.34 158.874C107.549 155.199 112.298 151.217 116.74 146.622C121.183 142.028 125.473 137.28 130.068 132.839C135.277 127.938 140.792 123.497 146.46 119.208C152.282 114.767 158.257 110.479 164.231 106.191C170.972 101.443 177.866 96.5422 185.372 92.8666C185.985 92.5603 186.751 93.3261 186.138 93.9387C180.47 98.6863 174.342 102.821 168.368 107.263C162.393 111.551 156.418 115.992 150.597 120.587C144.929 125.028 139.107 129.47 133.745 134.37C128.996 138.659 124.86 143.406 120.417 148.001C115.515 153.055 110.306 158.262 103.872 161.172C102.034 161.937 100.961 159.946 102.34 158.874Z" fill="#05080C"></path> <path d="M362.314 270.369C362.468 268.225 362.774 265.928 363.08 263.784C364 256.892 364.766 249.847 365.685 242.802C367.523 228.866 369.361 214.776 371.047 200.839C371.966 193.029 373.191 190.885 374.264 183.074C374.264 182.921 374.417 182.921 374.417 183.074C374.417 190.272 374.264 191.65 373.804 198.695C373.344 205.74 372.578 212.938 371.966 219.983C370.434 233.92 368.902 247.856 367.217 261.793C366.91 264.55 366.604 267.153 366.297 269.91C366.144 270.982 366.144 272.207 365.991 273.279C365.991 273.739 365.838 274.198 365.531 274.811C365.531 274.964 365.378 275.117 365.225 275.423C364.153 277.108 361.855 275.883 362.161 274.198C362.161 273.126 362.161 271.748 362.314 270.369Z" fill="#05080C"></path> <path d="M365.225 275.576C365.072 275.883 365.072 275.73 365.225 275.576V275.576Z" fill="#021732"></path> <path d="M288.014 243.415L275.299 204.821L225.816 201.758L186.751 235.145L237.919 235.298L275.299 204.821" fill="#0373F9"></path> <path d="M260.439 218.145L268.405 242.342C268.405 242.342 262.583 252.45 245.425 257.964C228.267 263.63 217.39 258.882 217.39 258.882L209.577 235.144H237.919L260.439 218.145Z" fill="#0650F7"></path> <path d="M288.627 243.26L277.29 204.207C276.984 203.441 276.371 202.829 275.452 202.829L225.816 200.531C225.51 200.531 225.05 200.684 224.897 200.838L185.372 233.765C184.453 234.531 184.453 235.756 185.066 236.675C185.526 237.134 185.985 237.44 186.598 237.44H237.766C238.225 237.44 238.685 237.287 239.144 236.981L276.524 206.504C277.443 205.738 277.597 204.513 276.831 203.594C276.065 202.675 274.839 202.522 273.92 203.288L236.54 233.765L237.919 233.305H186.751L188.13 236.981L226.735 203.135L225.816 203.441L275.299 207.117L273.46 205.738L287.401 243.873C287.554 244.179 287.861 244.485 288.32 244.332C288.627 243.873 288.78 243.566 288.627 243.26Z" fill="#021732"></path> <path d="M259.213 218.603L266.567 242.954L266.72 241.269C266.26 242.035 265.494 242.954 264.728 243.719C263.962 244.485 263.196 245.404 262.43 246.17C260.745 247.701 258.907 249.08 257.068 250.305C253.238 252.755 249.102 254.746 244.813 256.125C240.523 257.503 235.927 258.422 231.485 258.728C229.187 258.881 226.889 258.728 224.744 258.575C223.672 258.422 222.599 258.269 221.374 258.116C220.301 257.962 219.229 257.503 218.31 257.197L219.382 258.422L210.956 234.837C210.65 234.071 209.884 233.765 209.271 234.071C208.505 234.377 208.199 234.99 208.352 235.756L215.552 259.647C215.705 260.26 216.165 260.719 216.625 260.872C218.003 261.485 219.076 261.638 220.454 261.944C221.68 262.251 222.906 262.404 224.131 262.557C226.582 262.863 229.033 262.863 231.485 262.71C236.387 262.404 241.289 261.485 245.885 259.953C250.481 258.422 255.077 256.431 259.213 253.674C261.205 252.296 263.196 250.764 265.035 249.08C265.954 248.161 266.873 247.395 267.639 246.476C268.558 245.557 269.171 244.638 270.09 243.26C270.396 242.801 270.396 242.188 270.243 241.575L261.664 217.684C261.358 216.918 260.592 216.612 259.979 216.918C259.366 217.224 258.907 217.99 259.213 218.603Z" fill="#021732"></path> <path d="M181.389 376.5L158.41 401.004L151.822 368.996L181.389 376.5Z" fill="white"></path> <path d="M166.529 371.907C161.78 370.988 157.184 370.07 152.435 368.997L154.886 366.547L161.321 398.555L157.797 397.483C161.474 393.655 165.304 389.979 169.134 386.15L180.93 374.664L166.529 371.907ZM172.657 387.069C168.827 391.511 164.997 395.952 161.014 400.393C160.708 400.7 160.402 401.006 159.942 401.006C158.87 401.159 157.797 400.546 157.491 399.474L151.057 367.466C151.057 367.16 151.057 366.853 151.057 366.547C151.363 365.475 152.435 364.862 153.508 365.169C158.716 366.547 163.925 368.079 168.98 369.61L183.841 374.205L172.657 387.069Z" fill="#021732"></path> <path d="M51.3257 187.055L71.5476 227.027L103.106 210.793L87.1736 179.397L74.7647 175.568L51.3257 187.055Z" fill="white"></path> <path d="M87.6332 181.081L79.3606 184.298C79.0542 184.451 78.5946 184.298 78.4414 183.991L73.5392 176.487C73.0796 175.874 73.2328 174.955 73.9987 174.649C74.6115 174.19 75.5307 174.343 75.8371 175.109C75.8371 175.109 75.8371 175.262 75.9903 175.262L79.667 183.379L78.7478 183.072L86.4077 178.631C87.0204 178.325 87.9396 178.478 88.246 179.09C88.5524 179.703 88.3992 180.622 87.7864 180.928C87.7864 181.081 87.6332 181.081 87.6332 181.081Z" fill="#021732"></path> <path d="M65.4197 199.001L84.1096 190.425C84.8756 190.119 85.6416 190.425 85.948 191.037C86.2544 191.65 85.948 192.416 85.3352 192.875L67.258 202.677C66.1857 203.289 64.9601 202.83 64.5005 201.911C64.0409 200.839 64.3473 199.614 65.4197 199.001Z" fill="#021732"></path> <path d="M69.2496 206.506L88.0928 197.776C88.7056 197.47 89.6247 197.776 89.9311 198.389C90.2375 199.002 89.9311 199.767 89.3183 200.227L71.2412 210.182C70.1688 210.794 68.9432 210.335 68.4836 209.416C67.7177 208.344 68.1772 207.119 69.2496 206.506C69.0964 206.659 69.2496 206.506 69.2496 206.506Z" fill="#021732"></path> <path d="M73.0795 214.01L91.9227 205.28C92.5355 204.974 93.4546 205.28 93.761 205.893C94.0674 206.506 93.761 207.271 93.1482 207.731L75.0711 217.685C73.9987 218.298 72.7731 217.839 72.3135 216.92C71.7008 215.848 72.0071 214.622 73.0795 214.01Z" fill="#021732"></path> <path d="M52.5512 187.514C59.5983 200.685 66.6453 213.397 73.3859 226.108L70.6284 225.189L102.493 209.568L101.88 211.406L85.948 180.01L86.714 180.623L74.3051 176.641H75.3775C67.8709 180.469 60.3643 183.992 52.5512 187.514ZM49.9469 186.595C57.9131 182.46 66.0325 178.325 74.1519 174.343C74.4583 174.19 74.9179 174.19 75.2243 174.343L87.6332 178.325C87.9396 178.478 88.246 178.632 88.3992 178.938L104.332 210.181C104.638 210.793 104.485 211.712 103.719 212.018L72.4668 228.865C71.5476 229.324 70.322 229.018 69.7092 228.099C62.9686 214.009 56.3811 200.073 49.9469 186.595Z" fill="#021732"></path> <path d="M198.854 66.984C199.007 68.2092 199.313 69.4345 199.773 70.6597C199.773 70.8128 199.62 70.966 199.62 70.966C199.466 71.4254 199.313 71.8849 199.313 72.3443C199.16 73.2632 199.007 74.1821 199.007 74.9479C199.007 75.8668 199.16 76.6325 199.313 77.5514C199.467 78.3172 199.773 79.2361 200.079 80.0018C200.845 81.6865 202.071 83.0648 203.45 83.9837C204.522 84.7495 205.594 85.2089 206.82 85.5152V85.6684C206.514 87.5062 206.667 89.6503 207.892 91.3349C208.505 92.2538 209.118 92.8664 209.884 93.479C210.65 94.0916 211.569 94.5511 212.488 94.8574C213.407 95.1637 214.48 95.3168 215.399 95.3168C215.859 95.3168 216.318 95.3168 216.778 95.1637H216.931C216.931 95.3168 217.084 95.3168 217.237 95.47C217.39 95.6231 217.544 95.9294 217.697 96.0826C218.463 96.8483 219.382 97.4609 220.454 97.9204C221.527 98.2267 222.446 98.3798 223.672 98.3798C224.744 98.3798 225.969 97.9204 226.735 97.4609C227.655 97.0015 228.421 96.2357 229.033 95.6231C229.187 95.47 229.34 95.1637 229.493 95.0105C229.646 95.0105 229.799 95.1637 229.953 95.1637C230.719 95.47 231.638 95.6231 232.557 95.7763C234.395 95.9294 236.54 95.6231 238.225 94.2448C239.91 92.8664 240.523 90.8755 240.83 89.1908C240.83 89.1908 240.983 89.1908 240.983 89.0377C241.749 88.5782 242.361 88.1188 243.127 87.6593C244.353 86.5873 245.425 85.0558 246.038 83.5243C246.651 81.8396 246.651 80.155 246.345 78.4703C246.191 77.5514 245.885 76.7857 245.272 76.0199C246.191 75.101 246.804 74.029 247.417 72.8038C248.03 71.2723 248.489 69.5876 248.489 67.903C248.489 66.2183 248.183 64.3805 247.417 62.849C246.957 62.0832 246.498 61.3175 245.885 60.5517C245.579 60.2454 245.272 59.9391 244.966 59.6328C244.966 59.6328 244.966 59.6328 244.813 59.4797C244.813 59.0202 244.813 58.5608 244.659 58.1013C244.506 57.1824 244.353 56.4167 243.893 55.6509C243.127 53.9663 241.749 52.5879 240.217 51.669C238.685 50.7501 237 50.2907 235.314 50.2907C234.855 50.2907 234.548 50.2907 234.089 50.2907H233.629L233.476 50.1375C232.71 48.606 231.331 47.2277 229.646 46.4619C228.88 46.1556 227.961 45.8493 227.042 45.8493C226.276 45.8493 225.357 45.6962 224.591 45.8493C222.906 46.1556 221.22 46.9214 219.995 48.1466C219.382 48.7592 218.922 49.3718 218.616 49.9844C217.697 49.6781 216.931 49.3718 215.859 49.0655C214.327 48.606 212.641 48.4529 210.803 48.7592C210.343 48.7592 209.884 48.9123 209.424 49.0655C208.965 49.2186 208.352 49.5249 207.892 49.9844C206.973 50.7501 206.36 51.8222 206.054 52.7411C205.901 53.2005 205.748 53.66 205.748 53.9663C205.748 54.2726 205.594 54.4257 205.594 54.5789C205.441 55.0383 205.288 55.4978 204.982 55.8041C204.675 56.2635 204.369 56.5698 204.062 56.8761C203.909 57.0293 203.756 57.1824 203.45 57.3356C203.143 57.4887 203.143 57.6419 202.684 57.795C201.918 58.2545 201.305 58.8671 200.845 59.4797C200.386 60.0923 199.773 60.858 199.313 61.6238C198.854 63.6147 198.701 65.4525 198.854 66.984ZM234.089 50.597C234.089 50.7501 234.089 50.597 234.089 50.597V50.597ZM240.983 89.4971C240.983 89.4971 240.83 89.6503 240.983 89.4971V89.4971Z" fill="white"></path> <path d="M216.318 70.2002C217.391 70.0471 218.31 69.5876 219.076 68.975C219.842 68.3624 220.608 67.7498 221.067 66.8309C221.68 66.0652 222.14 65.1463 222.446 64.3805L222.906 63.0022L223.365 61.6238C223.672 60.5518 223.059 59.3266 221.986 59.0203C220.914 58.714 219.688 59.3266 219.382 60.3986C219.382 60.5518 219.229 60.7049 219.229 61.0112V61.1644V62.2364L219.076 63.3085C218.922 64.0742 218.769 64.84 218.463 65.4526C218.156 66.0652 217.85 66.8309 217.391 67.2904C216.931 67.903 216.318 68.3624 215.705 68.6687H215.552C215.246 68.8219 215.093 69.2813 215.246 69.5876C215.859 70.2002 216.165 70.3534 216.318 70.2002Z" fill="#021732"></path> <path d="M208.505 84.5976C207.279 83.8319 206.207 83.0661 205.288 81.9941C204.369 81.0752 203.756 79.85 203.296 78.7779C203.143 78.1653 202.99 77.5527 202.99 76.9401C202.837 76.3275 202.837 75.7149 202.99 75.1023C202.99 74.4897 203.143 73.8771 203.296 73.2645C203.45 72.9582 203.45 72.6519 203.603 72.4987C203.603 72.3456 203.756 72.1924 203.756 72.1924C203.756 72.0393 203.909 71.8861 203.909 72.0393L204.062 69.8952C203.603 68.9763 203.296 67.7511 203.296 66.679C203.296 65.607 203.296 64.6881 203.756 63.9223C203.909 63.4629 204.216 63.3097 204.522 62.8503C204.828 62.3908 205.288 62.0845 205.748 61.9314C205.901 61.7782 206.36 61.6251 206.667 61.3188C206.973 61.0125 207.279 60.8593 207.586 60.553C208.199 59.9404 208.811 59.3278 209.271 58.5621C209.731 57.7963 210.19 57.0306 210.497 56.2648C210.65 55.8054 210.803 55.4991 210.803 55.0396C210.803 54.7333 210.956 54.5802 210.956 54.427C211.109 54.1207 211.263 53.9676 211.416 53.8144C211.416 53.8144 211.569 53.6613 211.722 53.6613C211.875 53.6613 212.029 53.5081 212.335 53.5081C214.02 53.2018 216.624 54.1207 218.463 55.0396L217.39 53.5081C218.922 60.0936 220.608 66.679 222.14 73.2645C223.825 79.85 225.357 86.4354 227.042 93.0209L227.195 91.4894C227.042 91.9488 226.582 92.5614 226.123 92.8677C225.663 93.3272 225.357 93.6335 224.897 93.9398C224.437 94.2461 223.978 94.3992 223.671 94.3992C223.365 94.3992 222.599 94.3992 222.293 94.2461C221.833 94.0929 221.527 93.7866 221.067 93.4803C220.914 93.3272 220.914 93.3272 220.914 93.174L220.454 92.7146C219.995 92.102 219.229 91.6425 218.463 91.3362C218.003 91.1831 217.697 91.1831 217.237 91.1831C217.084 91.1831 216.778 91.1831 216.624 91.1831H216.318C216.012 91.1831 215.705 91.3362 215.399 91.3362C214.786 91.3362 214.173 91.3362 213.714 91.1831C213.101 91.0299 212.641 90.8768 212.182 90.5705C211.722 90.2642 211.263 89.8047 210.956 89.4984C210.19 88.7327 209.884 87.5075 210.037 86.4354C210.19 85.2102 210.65 84.1382 211.569 83.2193C212.488 82.4535 213.714 81.9941 215.246 81.9941C215.552 81.9941 216.012 81.6878 216.012 81.3815C216.012 81.0752 215.858 80.7689 215.552 80.6157C213.867 80.0031 211.875 80.1563 210.19 81.2283C208.505 82.3004 207.433 83.985 206.973 85.8228C206.667 87.6606 206.82 89.8047 208.045 91.4894C208.658 92.4083 209.271 93.0209 210.037 93.6335C210.803 94.2461 211.722 94.7055 212.641 95.0118C213.561 95.3181 214.633 95.4713 215.552 95.4713C216.012 95.4713 216.471 95.4713 216.931 95.3181H217.237V95.4713C217.237 95.6244 217.39 95.6244 217.544 95.7776C217.697 95.9307 217.85 96.237 218.003 96.3902C218.769 97.1559 219.688 97.7685 220.761 98.228C221.833 98.5343 222.752 98.6874 223.978 98.6874C225.05 98.6874 226.276 98.228 227.042 97.7685C227.961 97.3091 228.727 96.5433 229.34 95.9307C229.953 95.165 230.565 94.5524 231.025 93.6335C231.331 93.174 231.331 92.7146 231.178 92.2551V92.102C229.646 85.5165 228.114 78.9311 226.429 72.3456C224.897 65.7601 223.212 59.1747 221.527 52.5892C221.374 51.9766 220.914 51.5172 220.454 51.2109C219.076 50.4451 217.697 49.8325 216.165 49.5262C214.633 49.0668 212.948 48.9136 211.109 49.2199C210.65 49.2199 210.19 49.3731 209.731 49.5262C209.271 49.6794 208.658 49.9857 208.199 50.4451C207.279 51.2109 206.667 52.2829 206.36 53.2018C206.207 53.6613 206.054 54.1207 206.054 54.427C206.054 54.7333 205.901 54.8865 205.901 55.0396C205.748 55.4991 205.594 55.9585 205.288 56.2648C204.982 56.7243 204.675 57.0306 204.369 57.3369C204.216 57.49 204.062 57.6432 203.756 57.7963C203.45 57.9495 203.45 58.1026 202.99 58.2558C202.224 58.7152 201.611 59.3278 201.152 59.9404C200.692 60.553 200.079 61.3188 199.62 62.0845C198.854 63.7692 198.7 65.607 198.854 67.1385C199.007 68.8231 199.466 70.2015 200.079 71.733L200.232 69.5889C199.773 70.2015 199.773 70.5078 199.62 71.1204C199.466 71.5798 199.313 72.0393 199.313 72.4987C199.16 73.4176 199.007 74.3365 199.007 75.1023C199.007 76.0212 199.16 76.7869 199.313 77.7059C199.466 78.4716 199.773 79.3905 200.079 80.1563C200.845 81.8409 202.071 83.2193 203.45 84.1382C204.828 85.0571 206.36 85.6697 208.045 85.976C208.352 85.976 208.811 85.8228 208.811 85.3634C208.965 85.0571 208.811 84.7508 208.505 84.5976Z" fill="#021732"></path> <path d="M239.451 73.8756C240.676 74.335 241.749 75.1008 242.515 76.0197C243.281 76.9386 243.74 78.0106 243.74 79.0827C243.74 80.1547 243.587 81.38 243.127 82.452C242.668 83.5241 241.902 84.2898 240.983 84.9024C240.523 85.2087 240.064 85.515 239.451 85.8213C239.298 85.8213 238.378 86.2808 237.919 86.7402C237.459 87.1997 237 87.9654 236.846 88.7312C236.693 89.8032 236.08 90.7221 235.621 91.0284C235.161 91.4879 234.242 91.641 233.17 91.4879C232.71 91.4879 232.097 91.3347 231.638 91.1816C231.178 91.0284 230.565 90.7221 230.106 90.569L229.953 90.4158C228.88 89.9564 227.655 90.4158 227.195 91.4879C226.735 92.4068 227.042 93.4788 227.961 94.0914C228.727 94.704 229.493 95.0103 230.259 95.3166C231.025 95.6229 231.944 95.7761 232.863 95.9292C234.702 96.0824 236.846 95.7761 238.532 94.3977C240.217 93.0194 240.83 91.0284 241.136 89.3438C241.136 89.3438 241.136 89.4969 240.983 89.4969C240.983 89.4969 240.676 89.6501 241.289 89.3438C242.055 88.8843 242.668 88.4249 243.434 87.9654C244.659 86.8934 245.732 85.3619 246.345 83.8304C246.957 82.1457 246.957 80.461 246.651 78.7764C246.345 77.0917 245.425 75.5602 244.047 74.4882C242.821 73.4161 241.289 72.8035 239.757 72.6504C239.451 72.6504 238.991 72.8035 238.991 73.263C238.838 73.4161 238.991 73.7224 239.451 73.8756Z" fill="#021732"></path> <path d="M229.493 65.3008C228.114 65.1476 226.582 64.8413 225.51 64.2287C224.897 63.9224 224.437 63.6161 224.131 63.1567C223.825 62.8504 223.825 62.5441 223.825 62.2378C223.978 61.0126 223.059 60.0937 221.833 59.9405C220.608 59.7874 219.688 60.7063 219.535 61.9315C219.535 62.2378 219.535 62.5441 219.688 62.8504L219.842 63.3098C220.301 64.535 221.067 65.4539 221.986 66.0665C222.905 66.6791 223.825 66.8323 224.744 66.9854C226.429 67.2917 228.114 67.1386 229.646 66.8323C229.953 66.8323 230.259 66.3728 230.259 66.0665C230.106 65.6071 229.799 65.3008 229.493 65.3008Z" fill="#021732"></path> <path d="M244.813 76.9403C246.038 75.8682 246.957 74.4898 247.723 72.9583C248.336 71.4268 248.796 69.7422 248.796 68.0575C248.796 66.3729 248.489 64.5351 247.723 63.0036C247.264 62.2378 246.804 61.4721 246.191 60.7063C245.885 60.4 245.579 60.0937 245.272 59.7874C244.966 59.4811 244.659 59.1748 244.047 58.8685L245.119 60.8595C245.272 59.7874 245.119 59.0217 245.119 58.2559C244.966 57.4902 244.813 56.5713 244.353 55.8055C243.587 54.1209 242.208 52.7425 240.676 51.8236C239.144 50.9047 237.459 50.4453 235.774 50.4453C235.314 50.4453 235.008 50.4453 234.548 50.4453H233.936C233.936 50.4453 234.089 50.4453 234.089 50.5984V50.7516C234.089 50.9047 234.089 50.5984 233.936 50.5984L233.782 50.2921C233.016 48.7606 231.638 47.3823 229.952 46.6165C229.187 46.3102 228.267 46.0039 227.348 46.0039C226.582 46.0039 225.663 46.0039 224.897 46.0039C223.212 46.3102 221.527 47.076 220.301 48.3012C219.076 49.5264 218.31 51.0579 218.003 52.7425C217.85 53.5083 218.463 54.274 219.076 54.274C219.842 54.4272 220.454 53.9677 220.608 53.3551C220.914 52.4362 221.527 51.3642 222.293 50.7516C223.059 50.139 224.131 49.6795 225.05 49.6795C226.123 49.6795 227.195 49.8327 228.114 50.2921C228.88 50.7516 229.646 51.3642 229.952 52.2831L230.106 52.7425C230.259 53.0488 230.565 53.3551 230.718 53.6614C231.331 54.274 231.944 54.5803 232.71 54.7335C233.016 54.7335 233.476 54.8866 233.782 54.7335H234.242C234.548 54.7335 234.702 54.7335 235.008 54.7335C236.08 54.8866 237 55.1929 237.919 55.6524C238.838 56.265 239.297 56.7244 239.757 57.6433C239.91 58.1028 240.217 58.5622 240.217 59.0217C240.37 59.4811 240.37 60.0937 240.37 60.4V60.8595C240.37 61.6252 240.829 62.2378 241.442 62.5441C241.442 62.5441 241.902 62.6973 242.055 62.8504C242.208 63.0036 242.515 63.1567 242.668 63.463C243.127 63.9225 243.434 64.3819 243.74 64.8414C244.353 65.9134 244.813 66.9855 244.966 68.3638C245.119 69.589 245.119 70.9674 244.813 72.3457C244.506 73.7241 243.893 74.9493 243.127 76.1745C242.974 76.4808 242.974 76.9403 243.281 77.0934C244.2 77.2466 244.506 77.2466 244.813 76.9403Z" fill="#021732"></path> <path d="M352.663 138.966C353.735 139.426 354.961 139.119 355.42 138.047L357.565 133.912L366.144 133.3L368.289 136.975C368.595 137.588 369.361 137.894 370.127 137.588C370.893 137.282 371.046 136.516 370.74 135.75L363.693 120.282C363.54 119.822 363.233 119.516 362.774 119.363C361.701 118.904 360.629 119.21 360.016 120.282L351.897 136.21C351.284 137.128 351.59 138.354 352.663 138.966ZM359.557 129.93L361.855 125.489L364.459 130.237L359.557 129.93Z" fill="#021732"></path> <path d="M378.553 120.587L379.166 136.821C379.166 137.587 379.779 138.2 380.545 138.2C383.149 138.353 385.6 138.506 388.204 138.506C388.817 138.506 389.43 138.659 390.349 138.506C391.268 138.353 392.034 138.047 392.8 137.587C394.332 136.668 395.251 134.83 395.405 132.993C395.558 131.155 394.945 129.317 393.566 128.092C393.413 127.939 393.107 127.786 392.8 127.479C393.107 127.173 393.26 126.713 393.566 126.407C394.026 125.335 394.179 123.957 393.873 122.732C393.566 121.506 392.8 120.434 391.728 119.669C391.268 119.362 390.655 119.056 390.043 118.903C389.43 118.75 388.664 118.75 388.358 118.75L385.753 118.597L380.545 118.443H380.391C379.319 118.597 378.553 119.515 378.553 120.587ZM390.962 125.182C390.809 125.641 390.502 126.101 390.043 126.407C389.89 126.407 389.583 126.407 389.43 126.407H388.97C386.826 126.407 384.528 126.56 382.383 126.713L382.536 122.578L385.753 122.425L388.358 122.272C388.817 122.272 389.124 122.272 389.277 122.272C389.43 122.272 389.736 122.425 389.889 122.425C390.809 123.038 391.268 124.11 390.962 125.182ZM382.076 135.443L382.383 129.623C384.681 129.93 386.826 129.93 389.124 130.083H389.889C390.043 130.083 390.196 130.083 390.349 130.236C390.655 130.389 390.962 130.542 391.268 130.849C391.881 131.308 392.034 132.074 392.034 132.839C392.034 133.605 391.575 134.218 390.962 134.677C390.655 134.984 390.349 135.137 389.889 135.137C389.583 135.137 388.817 135.137 388.204 135.29C386.213 135.29 384.068 135.29 382.076 135.443Z" fill="#021732"></path> <path d="M359.25 144.631C360.935 144.019 362.774 143.712 364.612 144.019C366.45 144.325 368.136 145.244 369.361 146.469C369.974 146.928 369.974 147.847 369.361 148.46C368.902 149.073 367.982 149.073 367.37 148.46C365.378 146.775 362.621 146.316 360.323 147.388C358.025 148.46 356.339 150.757 356.493 153.208L356.646 154.127L356.952 155.045C357.105 155.658 357.412 156.117 357.718 156.577C358.484 157.496 359.403 158.262 360.476 158.721C362.621 159.64 365.378 158.874 366.91 157.19C367.676 156.424 369.055 156.271 369.821 157.036C370.587 157.802 370.74 159.18 369.974 159.946C367.216 162.703 362.774 163.622 359.097 162.09C357.259 161.325 355.88 160.099 354.807 158.568C354.348 157.802 353.888 156.883 353.582 155.964L353.276 154.586C353.276 154.127 353.276 153.667 353.122 153.208C353.122 151.217 353.735 149.379 354.961 147.847C356.033 146.469 357.565 145.397 359.25 144.631Z" fill="#021732"></path> <path d="M379.166 144.172C378.859 149.685 378.553 155.505 378.553 161.171V161.324V161.478C378.706 162.55 379.625 163.315 380.545 163.162C382.076 163.009 383.455 163.009 384.987 162.856H386.06C386.519 162.856 386.979 162.856 387.438 162.703C388.358 162.55 389.123 162.243 389.889 161.784C393.107 160.252 395.251 156.883 395.098 153.361C395.098 149.838 392.953 146.469 389.889 144.937C388.358 144.172 386.519 143.865 384.681 143.865C382.996 143.865 381.004 144.018 379.166 144.172ZM382.076 147.081C383.149 147.235 384.221 147.388 385.294 147.388C386.366 147.388 387.592 147.388 388.664 147.847C390.962 148.766 392.494 151.063 392.494 153.514C392.494 155.964 390.962 158.261 388.664 159.18C388.051 159.333 387.592 159.487 386.979 159.64C386.672 159.64 386.366 159.64 386.06 159.64H384.987C384.221 159.64 383.455 159.487 382.689 159.487C382.536 155.198 382.383 151.216 382.076 147.081Z" fill="#021732"></path> <path opacity="0.24" d="M32.3112 81.6224C50.1562 81.6224 64.6224 67.1562 64.6224 49.3112C64.6224 31.4662 50.1562 17 32.3112 17C14.4662 17 0 31.4662 0 49.3112C0 67.1562 14.4662 81.6224 32.3112 81.6224Z" fill="url(#paint1_linear)"></path> <path opacity="0.24" d="M21 547C30.9411 547 39 538.941 39 529C39 519.059 30.9411 511 21 511C11.0589 511 3 519.059 3 529C3 538.941 11.0589 547 21 547Z" fill="url(#paint2_linear)"></path> <defs> <linearGradient id="paint0_linear" x1="136.231" y1="571.593" x2="674.884" y2="28.6775" gradientUnits="userSpaceOnUse"> <stop offset="1.29819e-07" stop-color="#FC3855" stop-opacity="0"></stop> <stop offset="0.0581611" stop-color="#F83A57" stop-opacity="0.094544"></stop> <stop offset="0.1133" stop-color="#ED3F5F" stop-opacity="0.1842"></stop> <stop offset="0.1672" stop-color="#DA476C" stop-opacity="0.2719"></stop> <stop offset="0.2205" stop-color="#BF547D" stop-opacity="0.3584"></stop> <stop offset="0.2732" stop-color="#9C6394" stop-opacity="0.4441"></stop> <stop offset="0.3255" stop-color="#7176B0" stop-opacity="0.5291"></stop> <stop offset="0.3775" stop-color="#3F8DD2" stop-opacity="0.4"></stop> <stop offset="0.4281" stop-color="#06A7F7" stop-opacity="0.4"></stop> <stop offset="0.520833" stop-color="#03A8F9" stop-opacity="0.5"></stop> <stop offset="0.9971" stop-color="#FC3855" stop-opacity="0.4"></stop> </linearGradient> <linearGradient id="paint1_linear" x1="9.52175" y1="68.7837" x2="58.6477" y2="26.8043" gradientUnits="userSpaceOnUse"> <stop offset="0.1" stop-color="#0373F9" stop-opacity="0"></stop> <stop offset="0.17" stop-color="#0373F9" stop-opacity="0.02"></stop> <stop offset="0.26" stop-color="#0373F9" stop-opacity="0.08"></stop> <stop offset="0.36" stop-color="#0373F9" stop-opacity="0.19"></stop> <stop offset="0.46" stop-color="#0373F9" stop-opacity="0.33"></stop> <stop offset="0.57" stop-color="#0373F9" stop-opacity="0.5"></stop> <stop offset="0.85" stop-color="#FC3855"></stop> </linearGradient> <linearGradient id="paint2_linear" x1="5.55802" y1="541.563" x2="32.2021" y2="519.887" gradientUnits="userSpaceOnUse"> <stop stop-color="#0373F9" stop-opacity="0"></stop> <stop offset="0.69" stop-color="#0373F9"></stop> <stop offset="1" stop-color="#FA8047"></stop> </linearGradient> </defs> </svg> 